<svg width="3607" height="740" viewBox="0 0 3607 740" fill="none" xmlns="http://www.w3.org/2000/svg">
<path d="M522.641 457.266V457.293L522.586 457.374L522.641 457.266Z" fill="#813FD6"/>
<path d="M540.705 413.671L541.273 410.258C542.276 408.551 542.492 403.594 543.766 403.188L542.845 410.475L541.842 415.73C541.707 415.73 541.571 415.676 541.436 415.567C540.975 415.676 540.705 415.107 540.705 413.698V413.671Z" fill="#813FD6"/>
<path d="M538.327 426.237L538.49 425.425L538.679 424.612L539.546 422.932C540.63 422.391 540.25 425.831 540.711 426.915C539.952 429.055 539.248 428.973 538.517 430.003L538.327 426.21V426.237Z" fill="#813FD6"/>
<path d="M539.489 396.938C539.733 399.674 539.76 402.545 539.11 405.823C538.893 406.636 538.65 407.286 538.352 407.801L537.078 409.832C536.889 407.448 536.699 405.038 535.616 405.471C535.236 402.545 535.886 399.538 536.482 396.477C536.889 394.798 537.241 393.254 537.891 392.82C538.704 393.064 539.246 394.689 539.516 396.938H539.489Z" fill="#813FD6"/>
<path d="M431.895 588.64L431.949 588.586H431.977L431.895 588.64Z" fill="#813FD6"/>
<path d="M542.549 366.923C542.766 367.248 542.955 367.709 543.118 368.305C543.335 370.093 543.064 371.366 542.712 372.504C542.522 372.91 542.278 373.127 542.061 373.154C541.818 373.018 541.655 372.585 541.547 371.854C541.113 369.957 540.328 372.585 539.948 370.364L539.38 365.135L540.382 365C541.086 366.056 541.899 365.596 542.576 366.95L542.549 366.923Z" fill="#813FD6"/>
<path d="M522.903 469.027L522.984 468.945L522.903 469.027Z" fill="#813FD6"/>
<path d="M70.8203 118.82L70.7932 118.875L70.7661 118.902L70.8203 118.82Z" fill="#813FD6"/>
<path d="M11.1177 260.964V260.909L11.1719 260.828L11.1177 260.964Z" fill="#813FD6"/>
<path d="M8.07031 249.938L8.01612 250.019L8.07031 249.938Z" fill="#813FD6"/>
<path d="M6.86528 308.527C7.48834 310.748 8.08428 313.024 9.08658 312.401C10.0347 315.11 9.89928 318.09 9.79092 321.069C9.70966 322.722 9.57421 324.266 9.03243 324.754C8.16557 324.645 7.43415 323.209 6.72983 321.124C6.02551 318.577 5.53792 315.868 5.56501 312.672C5.61919 311.859 5.75462 311.182 5.97133 310.667L6.86528 308.5V308.527Z" fill="#813FD6"/>
<path d="M2.46875 293.299V294.084L2.44163 294.87L1.89986 296.604C0.924647 297.335 0.680852 294.03 0.00362158 293.082C0.328692 290.915 1.00592 290.888 1.52061 289.75L2.46875 293.272V293.299Z" fill="#813FD6"/>
<path d="M7.89085 344.125C8.13465 344.206 8.37844 344.613 8.59516 345.29C9.29948 347.024 9.67872 344.423 10.4101 346.482L11.6562 351.385L10.681 351.656C9.84127 350.762 9.10984 351.304 8.24298 350.112C7.99918 349.814 7.75537 349.407 7.51156 348.893C7.07813 347.24 7.13233 345.967 7.32196 344.856C7.45741 344.45 7.64702 344.206 7.86374 344.152L7.89085 344.125Z" fill="#813FD6"/>
<path d="M2.28743 275.558L2.50419 274.122C3.12725 271.793 4.0753 271.088 4.80671 269.165C5.64648 267.377 6.48628 265.535 7.38022 266.592C7.84074 268.136 8.40959 269.517 8.6263 271.522C9.11391 269.734 9.76406 269.653 10.3329 268.65L10.7122 270.709C11.0102 267.675 11.3624 264.668 11.7416 261.661C11.5249 261.363 11.3623 261.011 11.254 260.361C11.2269 260.578 11.1727 260.849 11.1727 260.93C9.00556 266.971 8.84307 261.824 8.518 259.548C8.49091 260.117 8.27414 261.011 7.86781 262.068C7.70527 262.176 7.56981 262.176 7.43437 262.095C6.40498 262.366 5.51106 265.264 4.6713 266.971L3.61486 268.136V268.379C3.20852 270.086 2.99181 272.551 2.17914 271.847C2.17914 268.488 0.201565 266.754 2.28743 261.634L3.77739 261.418L3.99407 260.09C5.1589 260.334 5.29439 257.273 5.80908 254.943C6.7572 254.374 8.16583 257.002 8.16583 249.905C8.95142 248.577 9.19517 246.735 9.46606 244.839C9.73695 243.241 10.1163 241.859 10.7122 240.64C11.3895 238.906 12.0396 241.263 12.7168 237.769C13.7733 236.468 14.6672 236.577 15.7779 234.735C16.2113 234.166 16.6447 233.678 17.024 233.57C17.024 233.57 17.024 233.624 17.0511 233.651C17.1594 233.191 17.2949 232.73 17.4033 232.27L17.1865 232.622C16.9698 232.053 16.3738 232.405 16.6718 230.671C16.9698 229.181 17.3491 227.8 17.918 226.472C18.9203 224.034 19.462 221.705 19.7058 219.375C19.8412 218.671 20.0038 217.966 20.3017 217.262C22.8481 211.248 19.8684 214.743 19.8684 213.09C19.1641 213.632 19.76 209.894 18.2159 213.253C17.7283 215.339 17.1865 217.452 16.3467 219.619C16.2926 219.754 16.2384 219.863 16.1571 219.971C16.0217 222.057 16.0487 223.926 15.9946 225.904C15.8862 227.204 15.805 228.612 15.4257 230.238C14.911 232.188 14.2067 233.841 13.5294 235.466C11.9583 239.827 10.956 239.177 10.0079 238.094C9.89952 237.877 9.76412 237.714 9.62867 237.579C10.5497 233.678 9.49315 232.351 10.1433 228.91C11.6603 226.256 12.0396 223.493 12.3917 220.702C12.3105 220.838 12.2292 220.973 12.1208 221.082C11.552 221.542 11.1186 221.569 10.7935 221.217C10.333 220.486 9.95372 219.592 10.1163 217.533L11.4707 214.689C12.7981 212.549 13.6378 210.246 14.2879 207.862C14.1525 207.998 14.0171 207.943 13.8816 207.7C14.288 205.289 14.8298 202.905 15.4257 200.521C16.5364 195.97 18.6494 192.692 20.8707 189.414C21.4125 188.71 21.7104 188.575 21.8459 188.846C22.5502 187.708 23.2274 186.949 23.8234 186.76C23.9859 186.76 24.1755 186.733 24.3651 186.678C24.9882 185.351 25.7196 183.997 26.4781 183.617C26.8573 183.401 27.0741 183.536 27.1283 183.969L27.047 184.295C27.5617 184.295 27.8597 184.945 28.9974 183.346C29.9997 182.209 30.5144 182.317 30.8124 182.859C30.8936 183.319 30.9208 183.861 30.9479 184.403L31.2729 183.455C31.4355 183.021 31.6251 182.642 31.7876 182.209C32.1127 179.987 32.194 178.064 31.4626 177.278C31.3813 175.789 33.0067 173.405 33.6568 171.536L35.2279 168.583C36.6907 166.443 37.7743 164.492 38.5057 162.488C38.0994 162.488 39.5622 159.806 37.9097 161.513L38.2349 159.941L40.1311 157.016C41.4584 155.499 42.9213 154.063 44.3028 152.6C44.8175 151.815 45.3322 151.029 45.7927 150.243C46.3074 149.404 46.8492 148.591 47.4181 147.778L48.3391 146.613L48.8538 145.476L51.7253 141.114C54.1362 138.405 56.791 135.236 59.4457 133.123L60.0417 132.365C59.6082 132.229 59.229 132.012 58.8226 131.823C58.6059 131.579 58.5518 131.2 59.0665 130.333C59.4187 129.872 59.7708 129.439 60.1229 129.005C62.3984 126.242 64.1322 125.565 65.9201 124.617C69.3604 123.615 68.3851 121.962 69.577 120.662C69.8479 120.581 70.0105 120.554 70.2272 120.527C70.2272 120.12 70.444 119.551 70.8232 118.847C73.6676 117.249 72.8007 119.308 73.6675 119.687L73.0716 120.256L72.4485 120.797C71.9338 121.014 71.5546 121.122 71.2295 121.177C71.2295 121.42 71.1211 121.746 70.9315 122.152L70.0647 122.965C71.2025 122.612 71.5817 122.965 71.2566 123.967C72.2319 123.154 73.207 122.314 73.9384 122.26C75.5638 121.014 76.2139 119.849 77.2162 118.63L75.6721 118.305L74.8053 118.739C74.7241 116.761 79.573 113.835 80.9817 111.695C83.0404 110.314 83.4197 109.555 82.9862 109.095C83.0946 108.58 83.6364 107.849 84.6658 107.09C86.8871 105.655 88.5666 105.167 90.4358 104.354C91.4381 103.975 92.332 103.677 93.0634 103.596C93.7407 103.542 93.9574 103.758 93.7407 104.219H93.7948C94.7158 103.542 95.7181 103 96.6663 102.431L97.506 103.081L96.9914 103.352L96.1245 105.059L96.5308 104.815C97.2623 104.679 97.5874 104.788 97.6686 105.031C98.5626 104.327 99.5106 103.65 100.486 102.973C100.486 102.864 100.567 102.702 100.703 102.512C99.4023 102.973 98.5084 103.081 98.3459 102.566C99.3752 100.968 100.784 99.3157 103.709 97.4465C103.439 97.5007 103.195 97.5549 102.978 97.582C102.165 97.582 101.542 97.4465 101.136 97.1214C100.946 96.6609 101.353 95.9295 102.951 94.9001L107.99 92.6246C111.701 90.2408 115.493 88.5071 118.527 88.5071C118.907 88.5883 118.988 88.8322 118.798 89.1843C121.019 88.5071 123.322 88.2633 125.245 86.5025L130.745 85.3647L132.018 84.9042L134.076 83.1705C140.388 81.1117 144.939 77.7256 152.064 76.8045L153.852 77.1838C154.231 76.8587 154.664 76.5336 155.287 76.1815C159.378 74.0956 164.85 73.3642 169.861 72.4432C171.947 72.091 173.952 71.5492 176.092 71.3867C178.178 72.3077 180.047 70.7907 182.024 70.7095C185.438 70.3302 188.77 70.3844 192.183 70.1406C192.914 70.1406 193.646 70.1948 194.296 70.2489C195.704 70.4657 197.113 70.4657 198.495 70.3031C197.763 70.1135 197.411 69.8426 197.519 69.4634C198.603 68.5694 200.824 68.2714 203.587 68.2173C206.053 67.7567 208.328 68.1631 210.658 68.2173C211.416 68.7861 214.071 69.0299 214.288 69.7072C215.561 69.8155 216.834 69.8968 218.134 69.951C217.782 69.3821 219.191 68.9758 221.412 68.6507C223.092 69.0028 224.771 69.4092 226.451 69.8426L227.426 70.3031H227.561C231.408 70.4386 235.878 71.793 238.695 70.1948C239.21 69.8968 239.833 69.6259 240.943 69.5175C244.546 69.5175 245.332 71.3867 249.368 71.1429C252.185 71.3596 254.515 71.2242 256.791 70.9804C260.421 71.5492 264.186 72.7141 266.895 71.5221C269.468 71.8743 271.608 72.7141 274.399 72.8495C277.947 73.4996 279.437 74.6916 282.065 75.5855C282.444 76.019 282.959 76.5066 282.553 76.7504L283.501 76.8587C283.826 76.8587 284.151 76.9129 284.503 76.9671L285.505 77.1025C286.995 77.3192 288.458 77.5359 289.948 77.8068C290.165 77.8068 290.381 77.8068 290.652 77.7797C290.95 77.1838 291.411 76.642 294.336 76.9942C298.02 78.2132 302.111 79.1613 306.337 79.8385L306.391 80.0011H306.581C309.29 80.5699 311.998 81.2472 314.707 81.8431C315.791 81.7889 317.037 81.9786 318.337 82.2224C319.665 82.4933 321.128 82.8996 321.886 82.5475L323.728 82.4662C326.87 83.6581 329.661 85.3105 333.67 85.0938L335.349 85.5544C340.496 86.7192 345.697 87.6131 350.79 89.2927C351.278 89.3739 351.738 89.5094 352.226 89.6719L353.689 92.1099C354.122 92.2454 354.529 92.3537 354.962 92.4621L355.504 92.6246C355.043 90.295 356.154 90.2137 362.276 92.1641C364.904 93.4915 367.044 95.171 370.945 95.4148C372.976 95.3336 374.791 96.4171 376.633 97.2569C378.123 98.0425 379.396 98.801 380.155 99.6137C380.615 100.155 380.615 100.481 380.155 100.589L380.317 100.643C381.97 100.806 383.46 101.374 384.814 102.295C384.679 102.025 384.977 101.889 385.6 101.862C386.223 101.916 386.9 102.025 387.632 102.16C390.097 102.702 391.912 102.675 394.377 103.352C395.515 103.731 396.517 104.165 397.167 104.761L398.657 105.898C400.038 107.144 402.07 107.795 404.21 108.472C408.978 110.368 413.041 112.806 417.511 115.027L420.707 116.49C423.552 117.628 426.044 118.793 424.852 119.416H424.879C427.426 120.635 429.972 121.637 432.518 122.721C435.336 123.858 438.072 125.05 440.862 126.486C447.797 130.008 455.328 133.313 460.502 138.541C461.016 139.056 462.425 139.624 463.427 140.166C475.13 147.128 486.318 154.93 496.043 163.951C496.368 164.33 496.774 164.655 497.262 164.98C501.894 169.341 507.556 173.296 511.754 177.983C514.517 180.99 518.066 183.942 520.206 187.031C521.208 188.033 522.482 189.089 522.455 189.875L525.001 191.609C529.687 194.399 532.776 197.975 534.645 201.984C538.735 208.025 545.941 213.822 549.002 220.215C549.056 221.136 553.174 225.741 549.381 223.195C547.891 223.113 545.291 220.567 543.72 218.671C538.979 213.117 534.022 209.081 529.01 204.774C540.659 216.747 551.548 229.452 561.273 243.024C559.323 241.751 557.318 240.505 555.341 239.231C555.747 239.99 556.126 240.776 556.452 241.534C556.452 242.455 560.19 247.169 556.614 244.487C555.124 244.324 552.74 241.697 551.332 239.746C549.544 237.308 547.648 235.195 545.751 233.191C514.924 214.255 482.2 198.002 448.068 184.918C424.771 176.005 401.041 168.122 375.929 162.596C370.43 161.377 364.822 160.266 359.188 159.291C359.188 159.345 359.242 159.345 359.269 159.4C358.511 160.131 357.617 159.535 356.75 159.481C356.75 159.318 356.75 159.183 356.804 159.02C356.885 158.966 356.939 158.939 357.021 158.912C356.1 158.749 355.152 158.641 354.231 158.479C354.881 158.777 355.666 158.939 355.693 159.779C355.775 159.806 355.856 159.833 355.964 159.887L355.802 160.862C355.422 161.675 355.043 162.515 354.014 162.894C353.797 163.002 353.58 163.084 353.337 163.165C352.659 163.382 352.009 163.68 351.495 164.14C350.953 164.682 350.953 165.603 350.14 165.982C350.438 166.822 350.032 167.364 349.192 167.77L348.813 167.716C348.867 166.985 348.813 166.253 348.379 165.576C348.217 165.522 348.054 165.468 347.919 165.413C347.187 164.872 347.052 163.978 346.429 163.355C345.887 162.623 345.318 161.892 345.752 160.944C346.348 160.402 346.889 159.779 347.648 159.454C347.052 159.074 347.079 158.424 346.781 157.91L347.567 157.422C346.483 157.287 345.399 157.151 344.343 157.043C344.235 157.259 344.072 157.449 343.855 157.612C343.937 157.612 344.045 157.639 344.045 157.639C346.077 159.291 344.18 159.86 343.341 160.402C343.557 160.402 343.855 160.51 344.208 160.835C344.208 160.971 344.208 161.133 344.208 161.269C344.208 162.271 345.183 162.867 345.697 163.653L345.995 164.628H346.077C346.646 164.926 347.458 165.007 347.133 165.874C345.968 166.063 345.21 168.014 343.612 166.443L343.666 164.98L343.232 164.872C343.395 163.707 342.365 163.788 341.553 163.598C341.417 162.732 342.42 161.025 339.927 161.865C339.494 161.296 338.844 161.323 338.194 161.35C337.625 161.35 337.164 161.133 336.731 160.808C336.135 160.456 337.002 159.372 335.756 159.372C335.295 158.587 335.349 157.666 334.699 156.962C334.483 156.664 334.32 156.366 334.266 156.013C334.13 156.013 333.995 156.013 333.859 155.986L333.914 156.068C333.697 156.393 333.832 156.907 333.209 156.989C332.668 157.043 332.18 156.907 331.665 156.745C330.771 156.393 329.904 156.501 329.065 156.88C328.821 156.934 328.55 156.934 328.279 156.88C326.031 156.284 327.412 158.072 326.816 158.56C327.033 159.047 325.706 159.643 326.952 160.077C327.71 159.86 328.469 159.779 329.254 160.023L329.39 160.104C330.121 159.698 330.771 159.183 331.476 158.722C331.936 158.451 332.451 158.262 333.02 158.289C333.724 158.37 334.32 158.668 334.889 159.02C336.433 159.752 336.162 160.862 335.783 162C335.702 162.163 335.647 162.325 335.593 162.488C334.239 162.298 333.751 163.653 332.586 163.761C331.665 162.813 330.69 163.219 329.742 163.598C329.796 163.653 329.85 163.68 329.877 163.734C330.04 164.14 330.067 164.574 329.959 164.98C329.715 165.63 329.417 166.226 328.74 166.578L327.764 166.009C327.006 165.386 326.193 165.332 325.381 165.468C325.435 165.576 325.435 165.711 325.353 165.901L322.942 166.876C321.398 167.418 320.206 166.687 318.96 166.091C318.689 165.874 318.608 165.657 318.69 165.44C318.256 165.251 317.958 164.953 317.823 164.492L317.741 164.032C317.254 163.978 316.766 163.951 316.522 163.463C316.414 163.219 316.414 162.975 316.549 162.732C316.604 162.704 316.604 162.677 316.658 162.65C316.604 162.19 316.766 161.648 316.116 161.35C315.628 160.971 315.601 160.483 315.71 159.968C315.845 159.67 316.008 159.4 316.17 159.156L315.818 159.318C315.656 159.372 315.52 159.372 315.358 159.427C314.599 160.158 314.003 160.944 313.895 161.946C313.461 162.677 312.513 162.515 311.836 162.867L310.725 163.002C309.858 162.786 309.127 163.002 308.423 163.463C308.504 163.815 307.502 164.032 308.26 164.492L307.773 165.088H306.635L304.657 164.33C304.359 164.384 304.034 164.438 303.763 164.519C303.438 164.601 303.113 164.655 302.788 164.682H302.301L301.921 165.034L300.242 165.603C299.05 165.386 297.722 165.738 296.612 165.224L296.314 165.305L296.531 166.551C296.531 166.876 296.476 167.174 296.178 167.391C295.989 167.418 295.826 167.472 295.664 167.553C294.553 167.96 293.984 167.228 293.307 166.687C292.169 165.034 292.169 166.957 291.627 167.147C291.546 167.039 291.492 166.93 291.411 166.822C291.356 167.12 291.194 167.418 290.977 167.716C289.921 167.093 290.463 166.091 290.273 165.251H290.544L290.815 165.224C291.004 165.386 291.14 165.549 291.221 165.738C291.275 165.549 291.356 165.359 291.465 165.17L291.844 165.088C291.465 164.628 291.411 164.113 291.654 163.544C291.221 163.544 290.815 163.544 290.598 163.138C289.921 163.029 289.542 163.517 289.054 163.788L289.487 165.034L289.812 165.278C289.542 166.741 287.672 166.091 286.995 167.039C286.182 166.93 285.993 167.31 286.074 167.933C285.993 168.285 285.722 168.502 285.343 168.583C284.503 168.583 283.934 168.041 283.257 167.716C282.905 167.526 282.58 167.283 282.336 166.957C282.119 166.632 282.065 166.361 282.146 166.091L281.063 166.145L280.819 165.17H281.008L281.415 164.14H281.252C280.981 163.923 280.873 163.653 280.873 163.409C280.521 163.571 280.142 163.734 279.762 163.842C279.762 163.923 279.708 164.032 279.654 164.113C280.142 164.33 280.44 164.682 280.467 165.197C280.006 166.063 279.437 166.822 278.354 167.039C278.462 167.12 278.543 167.174 278.625 167.283C278.895 167.689 279.112 168.095 279.248 168.556C279.302 169.07 279.112 169.45 278.543 169.639L276.782 169.558C275.455 170.046 274.209 170.262 273.125 169.179C272.99 168.962 272.963 168.718 273.017 168.474C272.232 168.258 271.419 167.716 270.796 168.827L268.872 168.204C268.737 168.204 268.574 168.231 268.439 168.285L267.816 169.395C265.703 169.721 264.43 171.942 262.073 171.671L261.396 171.048C261.315 171.292 261.206 171.536 261.017 171.779C259.879 173.161 258.118 173.242 256.574 173.784C255.924 173.974 255.355 174.353 254.651 174.353C253.757 173.378 253.459 174.813 252.809 174.84C251.725 175.084 250.614 175.084 249.558 175.355C249.314 175.355 249.07 175.355 248.826 175.274C248.285 175.057 247.851 175.193 247.445 175.409C247.743 175.545 247.932 175.816 247.987 176.168C247.878 177.062 247.255 177.468 246.388 177.631C245.738 178.199 244.926 178.037 244.167 178.172C243.761 177.685 242.84 177.685 242.569 177.062C242.135 177.089 241.729 177.17 241.323 177.251C241.621 177.766 241.323 178.308 240.754 178.85L238.858 178.389L238.397 178.091H238.37C237.178 178.497 235.39 177.956 235.173 179.933C235.119 180.285 235.065 180.637 234.794 180.935C233.792 181.559 232.844 180.042 231.841 181.017C230.975 181.342 230.406 181.992 229.918 182.696C228.726 182.913 227.263 182.805 227.101 184.484C226.288 184.755 225.394 184.511 224.663 185.107C223.525 185.459 222.631 184.782 221.602 184.674C221.304 184.376 220.952 184.105 220.925 183.78L220.654 183.915C220.654 183.915 220.464 184.051 220.356 184.078L220.058 184.24C219.624 184.484 219.191 184.701 218.73 184.891C218.703 184.972 218.649 185.053 218.595 185.107C218.812 185.703 218.974 186.299 218.161 186.841C216.726 186.841 215.453 187.356 214.234 188.06L214.152 187.952H214.098L211.579 189.144C211.389 189.55 211.091 189.821 210.712 190.037C210.333 190.254 209.818 190.417 209.899 190.986L209.628 191.69C208.463 191.852 207.055 191.473 206.567 193.126L206.053 193.397C204.617 194.399 203.398 195.645 201.827 196.458C201.718 196.593 201.583 196.674 201.42 196.728L199.795 195.482C199.795 195.482 199.551 195.618 199.416 195.726L199.253 195.835C200.716 197.406 200.635 197.893 198.874 199.031C197.817 199.167 196.544 198.787 196.138 200.358C196.057 201.307 195.244 201.334 194.594 201.55C193.998 201.659 193.429 201.659 192.86 201.469C192.481 201.307 192.264 201.063 192.237 200.792H192.183C191.993 201.469 191.56 201.767 190.91 201.767C191.099 201.903 191.181 202.119 191.153 202.417C191.099 202.661 190.991 202.905 190.883 203.122C190.422 203.853 190.395 204.747 189.907 205.478C189.636 205.776 189.338 205.939 188.932 205.885H188.147C187.307 205.695 186.819 206.21 186.413 206.86C185.221 208.025 183.596 208.431 182.295 209.46L181.428 210.219C180.778 210.977 180.128 211.6 179.614 210.652C178.963 211.33 178.449 212.088 177.907 212.847C177.311 213.659 176.796 214.526 176.092 215.285C174.304 217.127 173.166 219.646 170.268 220.106C169.97 220.161 169.807 220.675 169.618 220.973C166.8 224.441 163.956 227.773 160.38 230.509C160.218 230.59 160.082 230.698 160.001 230.888C158.267 232.215 157.373 234.383 155.558 235.574C154.448 236.414 153.743 237.796 152.362 238.419C152.064 238.798 151.874 239.34 151.278 239.15L151.143 240.288C151.224 242.482 150.14 243.62 148.19 244.135C145.887 245.625 145.562 249.011 142.962 250.284C142.339 250.23 141.553 252.234 141.12 250.284C140.307 249.444 140.605 248.171 141.038 247.412C142.285 245.354 142.637 243.132 143.233 240.965C137.11 251.232 131.909 262.095 128.307 273.337C128.307 273.364 128.306 273.418 128.279 273.445C128.334 273.445 128.334 273.391 128.415 273.364C129.011 274.285 128.279 275.152 128.09 276.046C127.927 276.046 127.792 275.992 127.656 275.91C127.629 275.856 127.629 275.802 127.602 275.748C127.331 276.642 127.087 277.536 126.817 278.402C127.169 277.779 127.494 277.102 128.252 277.183C128.306 277.075 128.334 277.021 128.388 276.913L129.336 277.211C130.094 277.725 130.853 278.24 131.07 279.351C131.124 279.594 131.205 279.838 131.232 280.109C131.34 280.868 131.53 281.599 131.936 282.168C132.397 282.818 133.291 282.926 133.562 283.82C134.429 283.604 134.916 284.118 135.214 285.039L135.106 285.419C134.374 285.283 133.643 285.256 132.912 285.635C132.83 285.798 132.749 285.96 132.668 286.123C132.018 286.827 131.124 286.881 130.419 287.45C129.607 287.938 128.794 288.48 127.927 287.884C127.467 287.179 126.925 286.529 126.708 285.717C126.248 286.313 125.598 286.204 125.056 286.475L124.704 285.635C124.406 286.773 124.162 287.911 123.891 289.021C124.081 289.157 124.216 289.319 124.324 289.563C124.324 289.482 124.379 289.374 124.379 289.347C126.302 287.369 126.627 289.455 127.033 290.403C127.033 290.186 127.223 289.888 127.575 289.536C127.738 289.536 127.873 289.536 128.008 289.617C129.011 289.726 129.742 288.778 130.582 288.317L131.611 288.1V288.019C131.991 287.45 132.207 286.583 132.993 287.044C133.02 288.317 134.835 289.319 133.074 290.809L131.611 290.593L131.449 291.053C130.311 290.755 130.257 291.866 129.959 292.678C129.092 292.733 127.521 291.487 128.008 294.223C127.385 294.629 127.331 295.333 127.277 296.01C127.196 296.606 126.952 297.094 126.573 297.5C126.166 298.096 125.191 297.094 125.029 298.421C124.189 298.828 123.268 298.692 122.509 299.342C122.211 299.532 121.913 299.667 121.588 299.695C121.588 299.83 121.534 299.965 121.507 300.101C121.805 300.345 122.347 300.263 122.347 300.941C122.347 301.537 122.184 302.051 121.941 302.566C121.507 303.514 121.534 304.435 121.832 305.356C121.859 305.627 121.832 305.925 121.778 306.196C121.02 308.58 122.889 307.198 123.349 307.876C123.864 307.659 124.351 309.122 124.866 307.821C124.704 307.009 124.677 306.196 125.029 305.383L125.11 305.248C124.758 304.435 124.297 303.704 123.945 302.891C123.728 302.376 123.593 301.808 123.647 301.184C123.81 300.453 124.162 299.83 124.568 299.234C125.462 297.663 126.546 298.042 127.629 298.557C127.765 298.665 127.927 298.746 128.09 298.801C127.738 300.209 129.065 300.859 129.011 302.106C127.981 302.999 128.252 304.056 128.577 305.112C128.632 305.058 128.686 305.004 128.74 304.977C129.173 304.814 129.58 304.842 129.986 304.977C130.609 305.275 131.178 305.627 131.476 306.386L130.826 307.361C130.149 308.119 130.04 308.959 130.067 309.826C130.176 309.772 130.311 309.799 130.501 309.88L131.286 312.481C131.747 314.106 130.907 315.298 130.257 316.598C130.04 316.896 129.824 316.95 129.58 316.869C129.363 317.303 129.065 317.628 128.577 317.736L128.117 317.817C128.036 318.332 127.981 318.901 127.467 319.118C127.223 319.226 126.979 319.199 126.735 319.063C126.708 319.009 126.681 318.982 126.654 318.928C126.166 318.982 125.652 318.765 125.327 319.47C124.92 319.984 124.433 320.011 123.918 319.849C123.647 319.686 123.376 319.497 123.132 319.307L123.268 319.686C123.322 319.876 123.322 320.011 123.349 320.201C124.026 321.041 124.785 321.718 125.787 321.908C126.491 322.422 126.275 323.425 126.6 324.156L126.654 325.348C126.383 326.269 126.6 327.082 127.006 327.84C127.358 327.786 127.548 328.87 128.036 328.057L128.604 328.599V329.818L127.711 331.904C127.738 332.229 127.792 332.581 127.873 332.879C127.927 333.231 127.981 333.556 128.008 333.935V334.45L128.334 334.883L128.821 336.698C128.577 337.972 128.875 339.407 128.307 340.572L128.361 340.897L129.607 340.735C129.932 340.735 130.23 340.816 130.419 341.141C130.419 341.331 130.501 341.52 130.555 341.71C130.934 342.902 130.203 343.498 129.634 344.202C127.954 345.367 129.851 345.448 130.04 346.017C129.932 346.098 129.823 346.153 129.715 346.234C130.013 346.315 130.311 346.478 130.609 346.721C129.959 347.832 128.957 347.209 128.117 347.399V347.101V346.803C128.279 346.613 128.469 346.478 128.632 346.369C128.442 346.315 128.279 346.234 128.09 346.098L128.036 345.692C127.548 346.098 127.033 346.126 126.492 345.828C126.492 346.288 126.491 346.721 126.031 346.965C125.923 347.697 126.383 348.13 126.654 348.645L127.9 348.238L128.144 347.913C129.607 348.266 128.93 350.216 129.824 351.002C129.688 351.868 130.067 352.085 130.69 352.004C131.042 352.112 131.259 352.383 131.341 352.817C131.341 353.71 130.799 354.306 130.447 355.011C130.23 355.39 129.986 355.715 129.688 355.986C129.363 356.23 129.065 356.284 128.821 356.149L128.848 357.34L127.873 357.584V357.368L126.844 356.907V357.07C126.6 357.34 126.356 357.449 126.085 357.449C126.248 357.828 126.383 358.234 126.519 358.668C126.6 358.668 126.708 358.722 126.817 358.803C127.033 358.289 127.385 357.963 127.9 357.936C128.767 358.451 129.525 359.101 129.769 360.32C129.851 360.212 129.905 360.131 130.013 360.049C130.419 359.751 130.826 359.535 131.286 359.426C131.801 359.399 132.18 359.616 132.37 360.239L132.207 362.162C132.668 363.625 132.803 365.061 131.747 366.117C131.53 366.253 131.286 366.28 131.015 366.226C130.799 367.038 130.257 367.905 131.341 368.582L130.717 370.614C130.717 370.777 130.745 370.939 130.799 371.075L131.909 371.779C132.207 374.082 134.456 375.49 134.104 378.064L133.453 378.795C133.697 378.903 133.941 379.039 134.158 379.228C134.835 379.879 135.16 380.664 135.431 381.477L136.162 384.213C136.379 384.944 136.758 385.622 136.758 386.407C135.783 387.355 137.219 387.762 137.219 388.493C137.436 389.685 137.436 390.877 137.679 392.042C137.679 392.313 137.652 392.556 137.571 392.827C137.354 393.396 137.463 393.857 137.679 394.317C137.842 394.019 138.086 393.83 138.465 393.775C139.359 393.938 139.765 394.615 139.901 395.536C140.47 396.241 140.28 397.053 140.388 397.839C139.901 398.245 139.874 399.139 139.278 399.464C139.332 399.952 139.413 400.494 139.549 400.954C140.063 400.656 140.632 401.008 141.201 401.658L140.767 403.69L140.47 404.151V404.205C140.903 405.505 140.388 407.428 142.366 407.781C142.718 407.862 143.097 407.97 143.395 408.268C144.018 409.406 142.474 410.3 143.449 411.492C143.774 412.467 144.425 413.117 145.102 413.74C145.291 415.068 145.102 416.639 146.808 416.991C147.079 417.885 146.754 418.86 147.296 419.727C147.621 421 146.971 421.867 146.863 422.978C146.565 423.276 146.267 423.601 145.942 423.601L146.104 423.899C146.104 423.899 146.24 424.115 146.267 424.224L146.429 424.549C146.673 425.036 146.89 425.524 147.079 426.039L147.296 426.201C147.919 426.012 148.515 425.903 149.057 426.824C149.003 428.341 149.49 429.804 150.167 431.159L150.059 431.24V431.294L151.143 434.084C151.522 434.301 151.793 434.68 152.01 435.114C152.226 435.547 152.389 436.089 152.958 436.062L153.689 436.414C153.825 437.66 153.445 439.123 155.098 439.854L155.369 440.423C156.344 442.103 157.563 443.538 158.321 445.326C158.43 445.462 158.538 445.624 158.592 445.787L157.238 447.385C157.292 447.52 157.373 447.683 157.482 447.791L157.59 447.981C159.242 446.626 159.757 446.762 160.841 448.794C160.922 449.931 160.488 451.259 162.06 451.882C163.035 452.099 163.008 452.965 163.197 453.67C163.279 454.32 163.252 454.943 163.035 455.485C162.845 455.864 162.601 456.054 162.303 456.054V456.108C163.008 456.379 163.279 456.893 163.252 457.598C163.387 457.408 163.631 457.354 163.929 457.435C164.173 457.543 164.416 457.679 164.66 457.841C165.392 458.437 166.313 458.573 167.017 459.196C167.288 459.521 167.477 459.873 167.369 460.279L167.288 461.119C167.098 461.986 167.613 462.582 168.236 463.124C169.374 464.587 169.726 466.402 170.674 467.946L171.405 468.975C172.164 469.815 172.76 470.6 171.731 470.98C172.354 471.819 173.139 472.47 173.843 473.201C174.656 473.987 175.496 474.664 176.2 475.558C177.934 477.752 180.453 479.432 180.67 482.574C180.67 482.872 181.212 483.17 181.51 483.441C184.815 487.098 187.984 490.782 190.368 495.089C190.422 495.279 190.53 495.441 190.693 495.55C191.831 497.635 193.971 499.044 194.973 501.238C195.732 502.593 197.005 503.676 197.438 505.166C197.79 505.546 198.305 505.898 198.034 506.467L199.172 506.873C201.447 507.306 202.45 508.688 202.666 510.774C203.831 513.483 207.299 514.593 208.193 517.492C208.057 518.088 209.953 519.415 207.895 519.361C206.919 519.957 205.619 519.361 204.915 518.738C202.964 517.004 200.716 516.083 198.549 514.973C210.116 525.321 223.092 534.666 237.639 542.441C241.214 544.419 245.007 546.098 248.718 547.859C252.565 549.484 256.276 551.164 260.366 552.572C264.484 553.981 268.547 555.444 272.719 556.555C273.478 556.771 274.263 556.961 275.049 557.178C274.859 557.069 274.615 557.015 274.426 556.88C277.135 556.636 280.873 557.99 284.205 558.695C284.34 558.884 284.313 559.047 284.151 559.155C283.528 559.209 282.769 559.074 281.848 558.722C281.117 558.532 280.331 558.424 279.546 558.342C281.442 558.776 283.338 559.182 285.261 559.561C288.35 560.184 291.438 560.699 294.553 561.16C291.817 560.564 288.62 559.968 288.187 559.02L287.076 558.749L287.266 557.774C288.377 557.096 289.542 556.473 293.334 556.527C294.147 556.527 294.986 556.527 295.88 556.527C298.481 556.555 300.892 556.446 302.599 556.067C304.441 555.606 304.007 554.712 306.933 554.415C305.362 553.493 306.689 553.033 309.75 552.681L311.213 552.762C311.375 553.521 311.998 554.225 314.057 554.929C314.707 554.983 315.358 555.038 316.008 555.065C319.177 555.552 320.234 556.365 322.942 556.853C325.489 557.448 328.198 557.963 326.925 558.993C324.866 559.697 323.051 560.455 320.261 560.916C322.834 561.16 323.078 561.81 324.595 562.216L321.778 562.866C326.112 562.785 330.5 562.541 334.862 562.108C335.214 561.837 335.702 561.593 336.514 561.322C336.189 561.349 335.783 561.376 335.702 561.403C326.681 560.808 333.859 559.399 336.839 558.451C336.054 558.559 334.781 558.613 333.209 558.478C333.02 558.342 332.966 558.207 333.047 558.044C332.397 557.096 328.306 556.961 325.841 556.338L324.08 555.471H323.755C321.398 555.363 318.094 555.39 318.933 554.496C323.43 554.089 325.272 552.085 332.342 552.897L332.993 554.306L334.781 554.171C334.781 555.363 338.871 554.767 342.04 554.36C343.097 555.01 340.171 557.421 349.436 554.685C351.44 554.821 353.987 554.198 356.479 553.493C358.619 552.952 360.542 552.572 362.357 552.356C364.85 551.895 362.303 553.9 367.017 552.356C369.238 552.41 369.644 553.277 372.651 552.925C373.626 552.87 374.493 552.843 374.873 553.087C375.469 552.87 376.064 552.681 376.633 552.464L376.146 552.545C376.715 551.976 375.875 551.76 378.15 550.703C380.101 549.809 382.051 549.105 383.975 548.374C387.496 547.073 390.557 545.421 393.212 543.525C394.079 542.983 394.973 542.468 395.921 541.981C404.102 537.673 398.007 539.299 399.632 537.728C398.521 537.863 402.504 534.585 398.034 536.942C395.677 538.676 393.158 540.301 390.232 541.547C390.043 541.601 389.907 541.655 389.717 541.71C387.442 543.362 385.41 544.987 383.162 546.532C381.672 547.561 379.965 548.509 377.798 549.43C375.143 550.459 372.732 551.082 370.322 551.624C364.01 553.087 364.281 551.733 365.039 550.324C365.229 550.08 365.364 549.891 365.445 549.674C370.647 548.076 371.486 546.288 375.685 544.419C379.667 543.741 382.837 541.845 386.006 539.759C385.817 539.813 385.6 539.841 385.41 539.895C384.489 539.895 384.164 539.597 384.273 539.082C384.625 538.161 385.356 537.159 387.388 535.669L391.045 534.26C394.025 533.231 396.734 531.605 399.28 529.709C399.036 529.736 398.955 529.628 399.063 529.33C401.447 527.325 403.831 525.212 406.079 523.072C410.061 519.253 414.287 516.435 418.242 513.429C419.191 512.778 419.543 512.724 419.543 513.076C420.897 511.993 421.981 511.288 422.712 511.207C422.902 511.234 423.091 511.261 423.308 511.234C424.69 509.88 426.044 508.417 427.046 508.065C427.561 507.875 427.724 508.065 427.561 508.58L427.344 508.959C427.886 509.067 427.886 509.88 429.864 508.119C431.462 506.9 431.922 507.035 432.031 507.74C431.95 508.309 431.706 508.959 431.462 509.636L432.248 508.498C432.627 507.984 432.979 507.523 433.358 507.035C434.686 504.354 435.498 502.024 434.984 501.022C435.444 499.234 437.855 496.308 439.047 493.951L441.431 490.24C443.49 487.477 444.844 484.849 445.819 482.249C445.386 482.303 447.147 478.754 445.25 481.165L445.684 479.188L447.824 475.206C449.26 473.011 450.668 470.79 451.996 468.542C452.456 467.404 452.944 466.293 453.296 465.156C453.729 463.964 454.19 462.772 454.65 461.553L455.355 459.738L455.653 458.139C456.303 455.972 456.899 453.805 457.495 451.611C459.283 447.222 460.529 441.994 462.235 437.877L462.506 436.658C462.046 436.82 461.612 436.82 461.152 436.874C460.854 436.766 460.637 436.387 460.772 435.087C460.935 434.355 461.07 433.651 461.179 432.946C461.91 428.423 463.102 426.445 464.186 424.061C466.705 420.323 464.917 419.375 465.161 417.099C465.323 416.801 465.459 416.639 465.621 416.449C465.405 416.043 465.242 415.338 465.107 414.309C466.407 410.3 466.976 413.063 467.897 412.684L467.734 413.767L467.545 414.851C467.247 415.501 467.003 415.934 466.759 416.26C466.895 416.53 467.003 416.91 467.084 417.506L466.84 419.05C467.572 417.722 468.114 417.776 468.412 419.077C468.764 417.397 469.062 415.718 469.631 415.04C470.172 412.359 470.037 410.598 470.064 408.485L468.628 409.596L468.195 410.76C467.03 408.945 468.764 401.713 468.276 398.435C468.791 395.184 468.547 394.155 467.897 394.209C467.599 393.667 467.518 392.502 467.626 390.85C468.032 387.437 468.737 385.324 469.333 382.723C469.658 381.369 470.01 380.204 470.416 379.337C470.795 378.578 471.093 378.524 471.31 379.093V379.012L471.635 374.515L472.665 374.082L472.583 374.867L473.477 377.17V376.52C473.829 375.599 474.1 375.301 474.371 375.409C474.371 373.838 474.317 372.267 474.29 370.641C474.209 370.56 474.127 370.343 474.046 370.045C473.694 371.86 473.288 372.944 472.773 372.781C472.042 370.425 471.5 367.661 471.527 363.029C471.446 363.381 471.337 363.679 471.229 363.95C470.768 364.844 470.308 365.467 469.847 365.711C469.333 365.576 469.008 364.627 468.953 362.162L469.414 354.902C469.17 349.105 469.116 343.633 470.362 339.895C470.606 339.462 470.85 339.516 471.093 339.895C471.256 338.324 471.5 336.861 471.581 335.425C471.689 333.935 471.527 332.445 470.958 331.037L471.256 327.651C471.31 326.54 471.256 325.511 471.256 324.4C471.202 323.885 471.121 323.371 471.012 322.856C470.579 321.935 469.956 321.095 469.414 320.228C467.518 312.752 463.21 308.201 459.174 301.428L458.659 299.451C458.199 299.18 457.63 298.882 456.953 298.476C452.944 295.36 448.474 291.324 443.49 288.561C441.512 287.288 439.264 286.692 437.232 285.473C435.607 283.685 433.033 283.956 430.947 283.333C429.105 282.899 427.344 282.195 425.448 281.951C423.606 281.599 421.737 281.193 419.786 281.193C418.947 281.084 418.161 280.976 417.43 280.813C415.831 280.407 414.233 280.624 412.635 280.759C413.475 280.949 413.854 281.22 413.746 281.572C413.15 282.032 412.229 282.276 411.118 282.574C410.007 282.926 408.653 283.17 407.136 283.36C405.836 283.739 404.617 284.2 403.343 284.416C402.07 284.633 400.824 284.904 399.632 285.364C398.657 285.093 395.758 285.852 395.271 285.446C393.943 286.015 392.562 286.556 391.234 287.234C391.857 287.504 390.693 288.751 388.796 290.322C386.981 290.999 385.356 292.028 383.541 292.868C383.135 292.976 382.783 293.166 382.403 293.302L382.295 293.41C378.909 296.227 374.575 299.695 374.195 303.352C374.114 304.002 373.897 304.679 373.464 305.871C371.541 309.393 369.509 309.609 368.154 314.079C367.613 315.623 367.206 317.032 366.881 318.386C366.719 319.795 366.61 321.095 366.502 322.368C365.852 324.346 365.5 326.486 365.12 328.463C365.012 330.468 365.175 332.364 365.825 333.8C365.987 336.753 365.364 338.893 366.177 343.2C366.583 348.374 365.852 350.785 365.716 354.74C365.391 355.39 365.066 356.257 364.714 355.769L364.85 357.124C364.931 357.584 364.958 358.072 364.985 358.559L365.12 359.995C365.337 362.135 365.527 364.302 365.662 366.442C365.716 366.74 365.798 367.065 365.879 367.418C366.529 367.661 367.179 368.149 367.586 372.402C367.288 378.037 367.396 384.132 367.477 390.471L367.342 390.606V390.904C367.26 395.022 367.125 399.166 366.8 403.311C366.962 404.909 366.908 406.805 366.746 408.837C366.556 410.896 366.177 413.171 366.556 414.255L366.637 417.072C365.364 422.138 363.414 426.662 362.439 433.082L361.382 435.845C360.271 438.744 358.971 441.588 357.346 444.432C355.395 447.52 353.851 449.498 351.63 452.505L349.815 454.293L348.217 455.783C347.133 456.758 345.427 458.085 344.208 458.817C343.666 459.25 342.961 459.738 342.122 460.225C340.686 460.361 339.304 460.415 337.923 460.415L335.864 461.444L334.997 461.851C336.298 462.419 336.595 462.961 335.241 463.964C333.887 464.912 330.825 466.375 325.489 467.702C320.802 468.352 316.441 468.108 310.265 469.463C307.177 470.33 303.52 469.815 300.35 469.273C297.75 468.65 295.42 468.162 294.038 467.35C293.144 466.835 293.036 466.483 293.713 466.347L293.469 466.293C290.95 466.32 288.485 465.724 286.21 464.668C286.508 464.966 286.101 465.101 285.153 465.074L284.422 464.993C283.907 464.885 283.528 464.858 283.121 464.722C282.932 464.695 281.767 464.316 281.74 464.343L280.981 464.153C277.378 463.205 275.022 463.097 271.094 461.58C269.36 460.821 267.816 460.036 266.814 459.142L264.565 457.327C262.506 455.458 259.635 453.832 256.655 452.126C249.991 447.818 244.898 442.726 239.454 437.525C238.18 436.306 236.907 435.086 235.661 433.84C232.275 430.644 229.539 427.556 231.137 427.772L231.083 427.718C228.239 424.63 225.475 421.677 222.794 418.535C219.868 415.095 216.997 411.573 214.396 407.645C213.963 406.968 213.529 406.318 213.096 405.695L211.525 403.446L207.515 396.782L205.619 393.559L204.048 390.2C202.07 385.73 200.066 381.314 199.199 376.899C198.982 375.869 197.953 373.919 197.303 372.375C189.989 353.412 186.386 332.879 188.39 312.968C188.526 312.237 188.607 311.424 188.607 310.584C189.718 301.13 191.045 290.62 194.811 281.816C195.867 278.917 197.276 275.883 198.603 272.93C200.066 270.059 201.61 267.296 203.262 265.075C204.265 263.233 205.565 260.984 206.432 260.659C207.136 259.305 207.813 257.869 208.599 256.541C212.229 249.173 217.484 244.053 223.037 240.83C227.399 237.606 232.058 233.759 236.961 230.319C241.837 226.906 247.093 223.926 251.915 222.382C253.106 222.301 261.152 218.264 255.951 222.165C255.084 223.764 250.587 226.5 247.472 228.287C238.722 233.407 232.167 239.394 226.099 246.058C232.004 240.396 238.668 235.222 246.009 230.671C262.669 220.621 282.092 213.686 302.734 210.625C304.766 210.327 306.824 210.056 308.856 209.813C308.802 209.785 308.775 209.785 308.721 209.731C309.398 208.783 310.644 209.027 311.673 208.892C311.728 209.027 311.755 209.19 311.728 209.352C311.565 209.569 311.321 209.623 311.023 209.542C310.996 209.542 310.969 209.542 310.942 209.542C312.296 209.379 313.678 209.298 315.06 209.162C314.166 209.027 313.109 209.108 312.838 208.268C312.703 208.268 312.594 208.268 312.486 208.268L312.378 207.266C312.594 206.372 312.811 205.478 313.976 204.828C314.22 204.666 314.464 204.53 314.762 204.395C315.547 203.988 316.279 203.555 316.793 202.959C317.335 202.282 317.091 201.415 318.012 200.819C317.416 200.088 317.796 199.437 318.771 198.869H319.258C319.367 199.573 319.638 200.277 320.369 200.846C320.586 200.846 320.802 200.873 321.019 200.927C322.103 201.307 322.482 202.146 323.376 202.634C324.243 203.257 325.11 203.853 324.73 204.855C324.107 205.505 323.538 206.21 322.699 206.697C323.511 206.968 323.62 207.591 324.107 208.025L323.268 208.648C324.595 208.594 325.922 208.512 327.25 208.458C327.358 208.214 327.493 207.998 327.764 207.808C327.656 207.808 327.548 207.808 327.521 207.808C324.73 206.508 326.925 205.614 327.873 204.991C327.629 205.045 327.223 204.964 326.708 204.693C326.654 204.557 326.627 204.395 326.654 204.259C326.437 203.257 325.11 202.878 324.297 202.201L323.701 201.307H323.593C322.807 201.144 321.723 201.225 321.967 200.331C323.43 199.898 323.999 197.839 326.41 199.085L326.627 200.548H327.223C327.223 201.767 328.55 201.523 329.606 201.605C329.932 202.444 328.929 204.259 331.99 203.094C332.613 203.609 333.453 203.501 334.293 203.392C334.997 203.338 335.62 203.528 336.216 203.799C337.029 204.097 336.054 205.235 337.625 205.153C338.275 205.885 338.302 206.833 339.196 207.483C339.494 207.754 339.711 208.052 339.819 208.404C340.009 208.404 340.198 208.404 340.388 208.404L340.253 208.296C340.469 207.971 340.253 207.456 341.065 207.32C341.742 207.239 342.365 207.32 342.989 207.483C344.126 207.808 345.183 207.673 346.212 207.293C346.537 207.239 346.862 207.239 347.187 207.293C350.032 207.862 348.244 206.101 348.948 205.587C348.65 205.099 350.303 204.503 348.731 204.07C347.783 204.286 346.835 204.395 345.806 204.151L345.643 204.07C344.722 204.503 343.937 205.018 343.07 205.478C342.501 205.776 341.878 205.993 341.146 206.02C340.253 205.993 339.494 205.722 338.736 205.451C336.731 204.828 336.921 203.718 337.3 202.553C337.381 202.39 337.435 202.228 337.489 202.065C339.25 202.173 339.738 200.765 341.255 200.602C342.528 201.469 343.747 201.036 344.993 200.656C344.939 200.602 344.858 200.575 344.804 200.521C344.56 200.115 344.506 199.708 344.614 199.275C344.885 198.625 345.237 198.029 346.131 197.65L347.458 198.191C348.488 198.787 349.571 198.869 350.628 198.733C350.546 198.625 350.574 198.489 350.655 198.3L353.878 197.406C355.937 196.918 357.535 197.758 359.188 198.435C359.54 198.652 359.621 198.896 359.54 199.112C360.109 199.329 360.488 199.627 360.651 200.115L360.732 200.575C361.355 200.684 362.005 200.765 362.276 201.279C362.412 201.55 362.384 201.794 362.195 202.011C362.141 202.038 362.114 202.065 362.059 202.092C362.114 202.58 361.87 203.094 362.682 203.447C363.278 203.88 363.305 204.368 363.089 204.882C362.899 205.153 362.682 205.397 362.439 205.641L362.899 205.532C363.116 205.478 363.305 205.532 363.495 205.478C364.497 204.828 365.31 204.124 365.581 203.122C366.204 202.444 367.423 202.715 368.317 202.444L369.78 202.499C370.863 202.878 371.866 202.742 372.787 202.417C372.732 202.038 374.06 202.011 373.139 201.415L373.843 200.927L375.333 201.117L377.798 202.255C378.205 202.255 378.611 202.282 378.99 202.255C379.424 202.255 379.83 202.255 380.263 202.309L380.913 202.39L381.482 202.173L383.758 202.011C385.248 202.499 387.063 202.444 388.363 203.311H388.769C388.769 202.905 388.769 202.471 388.796 202.065C388.851 201.74 389.013 201.469 389.474 201.361C389.717 201.361 389.961 201.361 390.205 201.361C391.749 201.279 392.345 202.146 393.049 202.878C394.079 204.828 394.593 202.986 395.352 202.959C395.433 203.094 395.487 203.203 395.515 203.338C395.677 203.067 395.948 202.824 396.327 202.607C397.519 203.555 396.49 204.341 396.517 205.207L396.165 205.153L395.812 205.072C395.623 204.855 395.515 204.639 395.433 204.449C395.325 204.611 395.162 204.747 394.973 204.909L394.458 204.855C394.81 205.424 394.729 205.939 394.241 206.399C394.783 206.535 395.298 206.67 395.46 207.158C396.3 207.483 396.896 207.158 397.6 207.049L397.438 205.722L397.113 205.397C397.898 204.07 400.093 205.316 401.257 204.693C402.26 205.099 402.639 204.801 402.747 204.178C402.991 203.853 403.397 203.745 403.912 203.826C404.969 204.151 405.538 204.882 406.269 205.424C406.648 205.749 406.973 206.101 407.163 206.508C407.325 206.887 407.298 207.185 407.082 207.402L408.463 207.781L408.409 208.783L408.165 208.675L407.271 209.515L407.461 209.569C407.705 209.894 407.732 210.165 407.65 210.436C408.165 210.436 408.653 210.436 409.167 210.463C409.222 210.381 409.303 210.3 409.411 210.246C408.924 209.84 408.653 209.406 408.815 208.919C409.709 208.296 410.712 207.808 412.147 208.052C412.066 207.943 411.985 207.835 411.931 207.727C411.741 207.239 411.633 206.779 411.66 206.291C411.795 205.803 412.174 205.505 412.96 205.56L415.127 206.426C416.969 206.562 418.676 206.914 419.516 208.431C419.597 208.702 419.516 208.919 419.353 209.135C420.22 209.704 420.978 210.571 422.197 209.894L424.229 211.384C424.419 211.465 424.581 211.492 424.771 211.519L426.044 210.842C428.753 211.628 431.408 210.3 434.117 211.871L434.604 212.792C434.848 212.63 435.119 212.467 435.444 212.359C437.557 211.763 439.697 212.711 441.837 213.172C442.704 213.361 443.625 213.415 444.465 213.822C444.952 215.176 446.144 214.174 446.93 214.553C448.311 215.014 449.612 215.718 450.993 216.151C451.291 216.314 451.535 216.477 451.779 216.693C452.266 217.208 452.835 217.398 453.431 217.479C453.187 217.181 453.16 216.856 453.296 216.504C454 215.853 454.975 215.935 456.086 216.368C457.224 216.341 458.036 217.018 458.957 217.425C459.093 218.075 460.095 218.698 459.987 219.375C460.474 219.646 460.989 219.863 461.504 220.079C461.531 219.483 462.235 219.267 463.265 219.24L465.025 220.946L465.296 221.488H465.351C466.922 222.057 468.439 223.736 470.145 222.463C470.47 222.219 470.795 222.03 471.31 222.003C472.854 222.301 472.692 224.116 474.507 224.17C475.672 224.576 476.755 224.549 477.839 224.468C479.274 225.253 480.629 226.472 482.2 225.443C483.257 225.876 483.961 226.798 485.207 226.987C486.643 227.691 486.968 228.856 487.916 229.75C487.97 230.184 488.051 230.644 487.807 230.888L488.214 231.023C488.349 231.023 488.485 231.105 488.62 231.159L489.027 231.294C489.65 231.511 490.273 231.728 490.869 231.999H491.194C491.492 231.403 491.871 230.888 493.117 231.267C494.444 232.486 496.124 233.272 497.885 233.922V234.057H497.966L501.298 235.602C501.813 235.547 502.354 235.656 502.923 235.872C503.465 236.089 504.061 236.441 504.522 236.062L505.443 235.927C505.632 236.116 506.282 236.55 506.797 236.929C507.339 237.308 507.853 237.66 508.422 237.985C509.533 238.636 510.752 239.123 512.54 239.231L513.786 239.8C514.843 241.588 515.926 243.376 516.983 245.164L518.418 247.656C518.716 248.171 518.987 248.713 519.231 249.254C519.366 249.417 519.475 249.634 519.556 249.823L518.256 251.557C518.337 251.747 518.418 251.909 518.527 252.099L518.635 252.316C520.287 250.907 520.829 251.178 522.075 253.778C522.211 255.16 521.804 256.623 523.457 257.706C524.459 258.167 524.459 259.196 524.649 260.117C524.703 260.903 524.676 261.634 524.432 262.23C524.215 262.637 523.972 262.799 523.647 262.745V262.799C524.351 263.287 524.622 263.937 524.568 264.749C524.73 264.56 524.974 264.56 525.299 264.749C525.57 264.939 525.787 265.156 526.03 265.4C526.762 266.294 527.683 266.727 528.36 267.675C528.631 268.136 528.766 268.623 528.631 269.057L528.468 270.005C528.17 270.98 528.658 271.793 529.227 272.66C530.175 274.745 530.256 276.967 530.988 279.08L531.529 280.543C532.098 281.789 532.559 282.926 531.421 282.953C531.882 284.145 532.505 285.202 533.074 286.313C533.724 287.532 534.347 288.696 534.807 290.024C535.972 293.302 537.895 296.525 537.002 300.074C536.92 300.426 537.327 300.995 537.516 301.482C539.358 307.252 540.713 313.185 540.713 319.172C540.659 319.416 540.686 319.632 540.767 319.876C540.713 322.748 541.878 325.646 541.471 328.517C541.336 330.36 541.823 332.364 541.255 334.071C541.282 334.694 541.498 335.398 540.929 335.723L541.58 336.996C543.097 339.164 543.097 341.277 541.823 343.281C540.929 346.559 542.717 350.46 541.2 353.602C540.659 353.954 541.065 356.663 539.656 354.821C538.546 354.442 538.058 352.871 538.004 351.787C537.895 348.78 536.812 346.261 535.945 343.66C538.546 367.282 537.814 391.256 533.724 414.661C533.805 414.499 533.859 414.336 533.995 414.174C534.509 416.124 533.588 418.887 533.155 421.325C532.992 421.406 532.83 421.406 532.694 421.271C532.64 421.054 532.64 420.81 532.694 420.567C532.098 423.492 531.448 426.418 530.771 429.316C531.502 427.312 532.071 424.522 533.074 424.251L533.29 423.438L534.265 423.628C534.97 424.495 535.674 425.416 535.566 428.287C535.566 428.91 535.566 429.533 535.512 430.238C535.376 432.188 535.295 434.03 535.512 435.412C535.755 436.901 536.731 436.739 536.622 439.042C537.706 438.012 538.058 439.123 537.895 441.615L537.57 442.726C536.812 442.671 535.999 442.997 534.943 444.351L534.401 445.76C533.182 447.954 532.125 448.469 530.961 450.284C529.715 451.909 528.441 453.588 527.845 452.342C527.764 450.663 527.547 449.146 527.791 447.087C526.897 448.794 526.247 448.739 525.462 449.633L525.57 447.493C524.595 450.473 523.647 453.48 522.536 456.433C522.671 456.758 522.753 457.164 522.671 457.814C522.753 457.598 522.861 457.327 522.888 457.273C526.274 451.611 525.434 456.893 525.136 459.25C525.326 458.681 525.787 457.869 526.383 456.839C526.572 456.758 526.708 456.785 526.816 456.893C527.9 456.839 529.308 454.076 530.581 452.532L531.909 451.557L531.99 451.313C532.748 449.66 533.561 447.222 534.211 448.116C533.426 451.53 534.834 453.67 531.773 458.464L530.256 458.356C530.094 458.79 529.958 459.25 529.742 459.656C528.658 459.169 527.683 462.176 526.681 464.424C525.624 464.776 524.893 461.824 523.186 468.975C522.157 470.14 521.506 471.982 520.721 473.797C520.044 475.341 519.285 476.614 518.445 477.725C517.389 479.323 517.281 476.804 515.818 480.19C514.49 481.274 513.624 480.949 512.107 482.574C511.538 483.062 510.996 483.441 510.59 483.468V483.441C510.373 483.847 510.156 484.226 509.939 484.633L510.183 484.389C510.237 485.012 510.915 484.795 510.183 486.475C509.533 487.883 508.747 489.184 507.908 490.43C506.364 492.678 505.388 494.981 504.467 497.175C504.142 497.852 503.763 498.502 503.33 499.152C499.429 504.679 503.167 501.78 502.761 503.46C503.573 503.053 502.111 506.71 504.413 503.649C505.334 501.645 506.391 499.64 507.826 497.69C507.935 497.581 508.016 497.473 508.097 497.392C508.775 495.36 509.1 493.437 509.641 491.432C510.021 490.132 510.481 488.75 511.267 487.206C512.269 485.364 513.434 483.901 514.436 482.384C517.01 478.321 517.822 479.215 518.5 480.515C518.554 480.759 518.662 480.949 518.77 481.138C516.955 484.876 517.687 486.448 516.116 489.725C513.894 492.001 512.946 494.737 511.971 497.5C512.079 497.392 512.188 497.256 512.296 497.175C512.946 496.823 513.38 496.904 513.624 497.338C513.894 498.15 514.138 499.207 513.38 501.157L511.294 503.649C509.506 505.518 508.151 507.658 506.96 509.907C507.122 509.799 507.258 509.907 507.312 510.178C506.364 512.535 505.145 514.702 504.061 517.004C501.84 521.284 499.131 524.21 496.124 526.973C495.42 527.569 495.094 527.623 495.04 527.325C494.065 528.301 493.225 528.924 492.575 529.005C492.413 528.978 492.223 528.978 492.033 528.978C491.058 530.17 490.11 531.389 489.27 531.632C488.837 531.768 488.674 531.632 488.729 531.145L488.864 530.82C488.349 530.711 488.214 529.98 486.751 531.416C485.532 532.364 485.071 532.174 484.882 531.578C484.882 531.091 484.963 530.549 485.071 529.98L484.557 530.901C484.313 531.334 484.015 531.66 483.744 532.039C482.877 534.179 482.335 536.021 482.85 536.969C482.552 538.432 480.493 540.572 479.437 542.333C478.706 543.227 478.028 544.148 477.243 544.987C475.211 546.748 473.802 548.563 472.638 550.405C473.044 550.514 471.039 552.898 473.017 551.489L472.367 553.006L469.874 555.579C468.249 556.853 466.488 558.017 464.809 559.236C464.132 559.914 463.454 560.618 462.858 561.295C462.181 562.027 461.477 562.758 460.745 563.462L459.635 564.519L458.93 565.602L455.192 569.395C452.131 571.535 449.178 574.596 446.036 576.167L445.277 576.79C445.711 577.007 446.036 577.278 446.388 577.522C446.578 577.792 446.551 578.172 445.846 578.957C445.386 579.337 444.952 579.716 444.546 580.095C441.837 582.533 439.995 582.967 438.045 583.671C434.442 584.213 435.092 585.892 433.71 587.057C433.439 587.111 433.25 587.084 433.033 587.084C432.952 587.49 432.681 588.005 432.193 588.682C429.078 589.901 430.27 587.951 429.457 587.463L430.162 586.976L430.866 586.542C431.408 586.407 431.814 586.353 432.139 586.326C432.193 586.082 432.329 585.757 432.6 585.377L433.602 584.673C432.41 584.863 432.085 584.456 432.573 583.508C431.462 584.213 430.351 584.89 429.62 584.863C427.805 585.892 426.938 586.976 425.746 588.032L427.263 588.574L428.184 588.276C427.913 590.199 422.739 592.664 420.951 594.561C418.649 595.671 418.161 596.376 418.567 596.863C418.405 597.378 417.701 597.974 416.617 598.678C414.233 599.924 412.554 600.331 410.522 600.872C409.465 601.143 408.517 601.306 407.759 601.306C407.055 601.279 406.865 601.035 407.136 600.629H407.082L403.993 602.146L403.208 601.414L403.777 601.198L404.833 599.545L404.4 599.762C403.641 599.843 403.316 599.708 403.262 599.437C402.287 600.087 401.257 600.71 400.201 601.306C400.201 601.414 400.093 601.577 399.93 601.739C401.285 601.387 402.178 601.333 402.314 601.848C401.095 603.311 399.578 605.044 396.354 606.48C396.625 606.453 396.896 606.426 397.113 606.426C397.925 606.534 398.576 606.751 398.955 607.076C399.09 607.564 398.576 608.187 396.896 609.053L391.614 610.977C389.636 612.006 387.686 612.954 385.817 613.604C383.947 614.173 382.187 614.498 380.615 614.39C380.236 614.282 380.155 614.038 380.372 613.713C378.042 614.2 375.712 614.336 373.654 616.124C371.784 616.503 369.888 616.72 367.992 616.963C367.558 617.072 367.098 617.207 366.665 617.37L364.47 619.049C357.969 621.054 353.147 624.088 345.86 625.036L344.045 624.684C343.666 625.009 343.178 625.307 342.528 625.605C338.248 627.447 332.64 628.314 327.439 629.154C325.299 629.479 323.186 629.939 320.965 630.075C318.825 629.154 316.875 630.752 314.816 630.806C311.267 630.996 307.8 630.942 304.251 631.185C303.465 631.185 302.734 631.131 302.057 631.05C300.594 630.833 299.131 630.779 297.668 630.914C298.427 631.131 298.779 631.402 298.671 631.781C297.533 632.621 295.203 632.892 292.305 632.838C289.731 633.217 287.347 632.946 284.909 632.729C284.124 632.106 281.361 631.727 281.171 631.05C279.844 630.887 278.516 630.779 277.162 630.698C277.514 631.294 276.024 631.646 273.667 631.89C271.906 631.51 270.173 630.969 268.439 630.454L267.437 629.939H267.301C263.265 629.479 258.66 628.07 255.599 629.37C255.03 629.614 254.353 629.831 253.188 629.831C249.395 629.506 248.691 627.61 244.411 627.528C241.458 627.068 239.02 626.878 236.609 626.878C232.871 625.822 228.943 624.467 225.99 625.144C223.308 624.413 221.168 623.221 218.27 622.706C214.586 621.65 213.204 620.133 210.603 618.751C210.278 618.237 209.818 617.668 210.278 617.505L209.303 617.207C208.951 617.126 208.626 617.018 208.274 616.909L207.244 616.611L202.721 615.176C202.504 615.149 202.26 615.121 201.989 615.094C201.583 615.636 201.014 616.097 198.061 615.094C194.485 612.981 190.341 611.41 186.142 609.676V609.514L185.925 609.433L177.934 605.64C176.796 605.423 175.55 604.963 174.277 604.367C173.004 603.69 171.622 602.877 170.755 603.013L168.859 602.552C165.961 600.466 163.441 598.218 159.378 597.107L157.807 596.132C152.985 593.288 147.838 591.012 143.341 587.517C142.88 587.247 142.447 586.976 142.041 586.651L141.309 583.806C140.93 583.535 140.551 583.265 140.172 583.021L139.684 582.696C139.44 585.052 138.275 584.809 132.749 580.826C130.609 578.551 129.146 576.086 125.354 574.433C123.322 573.756 121.859 572.104 120.369 570.56C119.232 569.205 118.283 567.932 117.823 566.876C117.579 566.171 117.687 565.873 118.175 565.954L118.04 565.846C116.496 565.033 115.25 563.896 114.247 562.514C114.274 562.839 113.949 562.839 113.326 562.595C112.73 562.297 112.134 561.918 111.484 561.512C109.263 560.049 107.583 559.263 105.443 557.584C104.495 556.744 103.709 555.904 103.303 555.092L102.301 553.385C101.434 551.651 99.7815 550.161 97.9395 548.672C94.2011 544.798 91.4381 540.68 87.9706 536.752C87.1309 535.858 86.3995 534.883 85.6139 533.935C83.4738 531.551 81.6318 529.357 82.9862 529.33H82.9591C81.0629 527.027 79.0312 525.023 77.135 522.828C75.1033 520.418 73.0174 518.088 71.0399 515.487C68.5206 512.264 65.9742 509.013 63.7258 505.627C61.4774 502.241 59.3374 498.882 58.1996 495.225C57.9829 494.52 56.9535 493.274 56.3033 492.299C48.5016 480.461 42.1899 467.783 37.2867 454.943C37.1513 454.455 36.9345 453.941 36.6637 453.426C34.632 447.141 31.002 440.911 29.5663 434.545C28.4556 430.454 26.5052 426.093 26.0176 422.219C25.5842 420.81 24.9069 419.239 25.3133 418.535L23.8234 415.718C20.7894 410.923 19.6787 406.182 19.8413 401.604C18.7848 394.155 14.9652 385.405 15.0194 378.091C15.3716 377.224 13.7462 371.048 16.0217 375.165C17.322 375.951 18.541 379.526 19.1369 382.019C20.7352 388.954 23.2816 394.696 25.7196 400.629C24.8256 397.703 23.9046 394.805 23.0919 391.852C15.1277 363.165 10.2517 333.312 9.68282 303.568C9.62864 303.704 9.62859 303.839 9.54732 303.948C8.68047 302.187 9.08683 299.424 8.97847 297.04C9.14101 296.931 9.27649 296.904 9.43903 297.013C9.62865 297.446 9.6828 297.961 9.57444 298.638C9.57444 298.692 9.57444 298.746 9.57444 298.801C9.57444 295.685 9.57446 292.57 9.68282 289.455C9.43902 291.432 9.41195 293.87 8.518 294.304L8.43674 295.117H7.43437C6.56751 294.412 5.72781 293.681 5.21312 290.972C5.07767 290.376 4.9693 289.78 4.86094 289.13C4.61714 287.261 4.31915 285.5 3.83154 284.254C3.26267 282.899 2.3416 283.251 1.93526 281.057C1.0955 282.222 0.499549 281.247 0.174479 278.917L0.255743 277.806C1.01424 277.698 1.74564 277.238 2.44996 275.748L2.28743 275.558ZM12.175 251.259C12.175 250.826 12.175 250.419 12.175 250.04C11.9583 251.313 11.7686 252.586 11.4978 253.805C11.1185 254.808 10.956 255.593 10.8748 256.271C11.254 256 11.6603 255.566 12.0667 254.862L12.3917 253.48C12.6355 252.803 12.9065 252.288 13.1774 251.828C13.367 250.663 13.5295 249.498 13.7462 248.333C13.2586 249.932 12.8793 251.936 12.175 251.232V251.259ZM26.1801 202.986C26.1801 202.986 26.0718 203.013 26.0176 203.04C26.0718 203.365 26.126 203.718 26.126 204.124L26.4511 202.634C26.4511 202.634 26.2614 202.878 26.153 202.986H26.1801ZM65.7846 136.672C64.3759 137.809 63.1569 138.351 61.6399 139.841C59.9875 141.602 60.3397 142.144 60.15 143.038L60.2583 143.146L63.6987 140.247C63.78 139.922 64.0238 139.489 64.5114 138.812C64.9448 138.378 65.324 138.053 65.7574 137.674C66.2451 137.051 66.7056 136.428 67.2745 135.859L68.2768 134.83L68.6019 134.288C68.5477 134.125 68.5206 133.909 68.5477 133.665C68.6561 133.394 68.7915 133.15 68.954 132.906C67.9246 134.179 66.814 135.371 65.8388 136.672H65.7846ZM114.708 91.7578C113.353 92.4079 112.107 93.2477 110.807 94.0062C112.243 93.4373 113.57 92.5434 114.951 91.7849C114.843 91.7849 114.762 91.7849 114.708 91.7307V91.7578ZM153.147 77.8881C153.147 77.8881 153.391 77.6443 153.499 77.5089C150.303 78.159 147.133 78.9175 145.698 80.5158C145.508 80.8679 145.048 81.0034 144.398 81.0034C145.319 81.3013 144.939 81.8431 143.449 82.6016C143.531 82.6016 143.531 82.6829 143.585 82.71C144.804 82.412 146.023 82.1411 147.161 82.0057C147.702 82.0057 148.055 82.0057 148.271 82.0598C148.705 81.7077 149.328 81.3284 150.14 81.0305L151.061 80.7325C150.98 80.1636 151.685 79.5947 154.123 78.9446C153.202 78.8091 153.012 78.4028 153.12 77.8881H153.147ZM184.354 74.9354C183.135 75.4772 181.889 75.4772 180.616 75.4772C180.833 75.5313 180.968 75.6126 181.103 75.721C182.431 75.5584 183.514 75.2604 184.517 74.9354H184.354ZM515.195 189.956C515.195 189.956 514.978 189.983 514.815 189.956L516.468 191.554C516.468 191.554 516.685 191.5 516.793 191.446L515.195 189.929V189.956ZM357.292 159.074H357.346C357.292 159.074 357.237 159.074 357.21 159.074C357.237 159.074 357.265 159.074 357.292 159.102V159.074ZM347.756 159.535C348.163 159.4 348.65 159.345 349.246 159.454C349.788 159.752 350.167 160.348 350.953 160.212C351.386 160.023 351.765 159.725 352.226 159.616L352.795 159.481L351.467 159.156C351.467 159.02 351.522 158.885 351.549 158.749C351.549 158.533 351.603 158.37 351.711 158.208C350.817 158.072 349.923 157.937 349.029 157.801L349.111 157.883C349.219 158.777 348.244 158.993 347.756 159.508V159.535ZM341.39 158.153C341.742 158.424 342.013 158.479 342.257 158.479C342.176 158.126 342.04 157.774 341.824 157.449C341.661 157.395 341.499 157.341 341.336 157.287C341.146 157.151 341.038 156.962 340.903 156.799C340.442 156.745 339.982 156.691 339.521 156.636C340.09 156.853 340.794 156.989 340.496 157.774C340.334 157.801 340.198 157.855 340.063 157.937C340.523 157.991 340.984 158.018 341.39 158.153ZM322.753 155.986V156.122C322.888 155.959 323.024 155.77 323.159 155.634L322.617 155.851C322.617 155.851 322.726 155.932 322.753 155.986ZM295.501 158.126C296.151 158.37 296.585 158.885 297.343 158.993C298.183 158.993 298.21 158.37 298.454 157.937V157.774L296.883 157.205C296.801 157.368 296.612 157.476 296.341 157.585C296.124 157.585 295.935 157.503 295.745 157.449C295.474 157.53 295.203 157.585 294.932 157.612L294.418 157.666L294.228 157.828C294.228 157.991 294.174 158.153 294.12 158.316C294.038 158.424 293.957 158.506 293.849 158.587L295.501 158.072V158.126ZM274.209 167.58L275.591 167.12C275.076 167.039 274.588 167.255 274.128 167.472L274.209 167.608V167.58ZM261.315 170.425C261.315 170.425 261.26 170.642 261.233 170.75C262.29 170.614 263.292 170.425 263.644 169.206C263.671 168.908 263.834 168.881 264.051 169.016C263.671 168.556 263.753 168.095 264.213 167.689C264.186 167.662 264.186 167.608 264.159 167.553C263.753 167.58 263.319 167.608 262.913 167.499C262.723 167.418 262.588 167.31 262.506 167.228C262.398 167.499 262.209 167.716 261.938 167.878L261.64 168.014C261.748 168.556 261.558 169.016 260.773 169.26C261.125 169.531 261.26 169.964 261.287 170.452L261.315 170.425ZM251.752 170.019C251.59 170.073 251.508 170.208 251.373 170.289C251.562 170.262 251.779 170.262 251.969 170.289C251.887 170.235 251.806 170.154 251.752 170.046V170.019ZM250.777 170.696C250.777 170.696 250.939 170.587 250.994 170.533C250.912 170.614 250.777 170.642 250.723 170.723H250.777V170.696ZM147.432 235.547L147.838 234.897C147.838 234.897 147.702 234.762 147.675 234.68L147.188 235.358C147.188 235.358 147.323 235.493 147.404 235.574L147.432 235.547ZM125.029 283.793C125.95 283.793 126.004 284.85 126.464 285.419C126.383 284.958 126.383 284.443 126.573 283.82C126.952 283.279 127.602 282.953 127.575 282.087C127.467 281.599 127.223 281.193 127.196 280.651V280.028L126.627 281.409C126.491 281.382 126.356 281.328 126.221 281.274C126.031 281.274 125.868 281.166 125.733 281.03C125.462 281.978 125.164 282.899 124.893 283.847L125.002 283.766L125.029 283.793ZM123.728 293.004C123.728 293.166 123.783 293.329 123.837 293.491C123.945 293.004 124.053 292.516 124.216 292.083C124.514 291.757 124.649 291.459 124.649 291.189C124.297 291.243 123.918 291.351 123.566 291.541C123.512 291.703 123.43 291.893 123.349 292.055C123.187 292.245 122.997 292.299 122.834 292.435C122.726 292.922 122.591 293.41 122.482 293.87C122.753 293.302 122.97 292.597 123.728 292.976V293.004ZM119.828 311.424L120.017 312.02C120.017 312.02 120.098 311.912 120.18 311.885H120.315C120.153 311.722 119.99 311.587 119.855 311.424H119.828ZM120.884 338.161H120.721L120.098 339.841C120.234 339.949 120.369 340.139 120.451 340.437C120.451 340.653 120.342 340.843 120.315 341.06C120.369 341.358 120.423 341.656 120.451 341.954V342.496L120.64 342.712C120.803 342.739 120.965 342.794 121.128 342.848C121.236 342.956 121.317 343.037 121.399 343.146L120.938 341.331C121.209 340.653 121.751 340.193 121.859 339.38C121.913 338.486 121.263 338.432 120.83 338.134L120.884 338.161ZM129.553 363.11C129.444 363.679 129.634 364.221 129.851 364.736C129.905 364.709 129.932 364.655 129.986 364.655L129.58 363.11H129.553ZM131.53 376.032C131.232 375.978 131.205 375.815 131.341 375.571C130.853 375.951 130.419 375.842 130.013 375.355C129.986 375.382 129.932 375.382 129.878 375.409C129.905 375.869 129.905 376.303 129.796 376.736C129.715 376.953 129.607 377.088 129.498 377.17C129.742 377.305 129.959 377.522 130.121 377.793L130.23 378.118C130.772 378.037 131.232 378.226 131.449 379.093C131.747 378.714 132.153 378.605 132.641 378.578C132.749 378.578 132.857 378.633 132.939 378.66C132.83 377.522 132.668 376.411 131.476 376.005L131.53 376.032ZM132.207 389.062C132.262 389.252 132.397 389.333 132.451 389.495C132.424 389.279 132.451 389.062 132.451 388.845C132.397 388.926 132.289 389.008 132.207 389.089V389.062ZM132.885 390.145C132.885 390.145 132.776 389.983 132.722 389.902C132.803 389.983 132.83 390.118 132.912 390.227V390.173L132.885 390.145ZM193.05 508.661C193.05 508.661 192.887 508.742 192.779 508.769L193.375 509.419C193.375 509.419 193.537 509.311 193.646 509.257L193.023 508.688L193.05 508.661ZM319.34 560.997C317.741 561.214 315.872 561.322 313.488 561.241C311.186 560.943 309.344 560.347 306.31 560.374C304.657 560.51 303.357 560.726 301.515 560.726C300.784 560.726 300.025 560.726 299.294 560.699L304.793 561.349C304.82 561.485 304.793 561.62 304.63 561.756C304.739 561.999 304.63 562.189 304.224 562.325C307.854 562.623 311.511 562.785 315.168 562.866L314.816 562.785C313.895 561.891 317.741 561.62 319.34 561.024V560.997ZM349.219 559.047C349.815 558.911 350.33 558.722 350.844 558.505C349.029 558.857 347.214 559.209 345.481 559.399C343.991 559.399 342.853 559.534 341.905 559.724C342.42 559.995 343.151 560.239 344.262 560.347C344.939 560.266 345.616 560.212 346.293 560.13C347.242 560.103 347.973 560.13 348.677 560.184C350.33 559.886 352.009 559.534 353.662 559.182C351.332 559.534 348.596 559.968 349.246 559.02L349.219 559.047ZM414.477 530.332C414.477 530.332 414.342 530.332 414.26 530.332C414.044 530.711 413.827 531.145 413.502 531.578C414.044 531.091 414.531 530.576 415.046 530.061C414.856 530.143 414.64 530.251 414.477 530.332ZM466.813 444.107C465.811 447.331 466.353 447.71 466.407 448.929L466.542 449.01L468.926 443.186C468.926 442.753 468.98 442.048 469.197 440.911C469.468 440.098 469.712 439.421 469.956 438.662C470.199 437.579 470.416 436.495 470.66 435.384L471.121 433.407V432.54C471.039 432.378 470.904 432.161 470.823 431.863C470.823 431.484 470.823 431.077 470.823 430.698L469.631 437.443C468.737 439.827 467.761 441.344 466.813 444.134V444.107ZM471.852 352.41C472.014 350.324 471.906 348.211 471.744 346.071C471.689 346.18 471.662 346.288 471.608 346.342C471.689 348.374 471.771 350.379 471.852 352.383V352.41ZM465.08 307.117C465.459 307.28 465.73 307.794 465.865 308.499C465.919 307.415 466.542 307.74 467.707 309.365C467.707 309.284 467.761 309.257 467.789 309.203C467.111 307.848 466.651 306.386 466.028 305.14C465.784 304.516 465.676 304.11 465.676 303.866C465.134 303.433 464.565 302.837 463.915 301.97C463.698 301.645 463.481 301.32 463.21 301.022C462.723 301.293 461.775 300.751 459.906 298.394C460.258 299.424 459.96 299.776 459.445 299.857C459.283 299.857 459.093 299.722 458.93 299.64C461.26 302.62 463.075 305.79 465.134 307.063L465.08 307.117ZM429.647 278.538C431.245 278.538 432.762 278.944 434.144 279.621C433.927 279.459 433.792 279.296 433.71 279.161C432.112 278.728 430.703 278.592 429.457 278.511L429.647 278.565V278.538ZM208.138 267.133C207.624 268.081 207.109 269.003 206.648 269.978C206.703 270.059 206.73 270.249 206.703 270.465C207.19 269.463 207.732 268.488 208.301 267.513C208.247 267.431 208.22 267.269 208.165 267.133H208.138ZM322.211 206.86C321.724 207.077 321.155 207.239 320.423 207.266C319.692 207.077 319.069 206.589 318.148 206.887C317.66 207.158 317.281 207.537 316.739 207.781L316.062 208.052L317.768 207.998C317.768 208.133 317.768 208.268 317.768 208.431C317.823 208.648 317.796 208.864 317.714 209.027C318.825 208.946 319.963 208.892 321.073 208.837L320.938 208.756C320.613 207.889 321.751 207.483 322.211 206.887V206.86ZM331.503 207.402C331.692 207.347 331.855 207.266 332.017 207.185C331.449 207.185 330.88 207.185 330.338 207.158C329.877 206.941 329.525 206.914 329.227 206.968C329.39 207.293 329.606 207.618 329.932 207.916C330.148 207.916 330.365 207.971 330.555 208.025C330.825 208.133 330.988 208.323 331.178 208.485C331.774 208.485 332.342 208.458 332.938 208.458C332.207 208.296 331.232 208.296 331.476 207.429L331.503 207.402ZM353.608 208.431L353.553 208.296C353.418 208.458 353.255 208.621 353.093 208.783L353.77 208.594C353.77 208.594 353.635 208.512 353.58 208.431H353.608ZM387.604 210.544C386.873 210.138 386.44 209.488 385.546 209.217C384.516 208.973 384.354 209.623 383.92 209.975V210.111L385.708 211.032C385.871 210.923 386.087 210.815 386.467 210.815C386.738 210.896 386.927 211.004 387.171 211.113C387.523 211.113 387.875 211.113 388.2 211.167L388.823 211.248L389.121 211.14C389.176 211.005 389.257 210.842 389.392 210.707C389.528 210.625 389.663 210.571 389.799 210.517H387.632L387.604 210.544ZM416.969 209.271L415.073 209.081C415.669 209.379 416.346 209.406 417.023 209.433C417.023 209.379 416.969 209.325 416.969 209.271ZM430.487 212.982C430.297 213.226 430.107 213.172 429.891 212.928C430.08 213.524 429.755 213.876 429.024 214.011C429.024 214.066 429.024 214.12 429.024 214.147C429.539 214.336 430.026 214.553 430.46 214.851C430.649 215.041 430.758 215.203 430.785 215.312C431.056 215.149 431.381 215.068 431.76 215.041L432.166 215.095C432.329 214.553 432.789 214.255 433.846 214.472C433.575 214.039 433.656 213.605 433.873 213.172C433.954 213.09 434.035 213.009 434.117 212.928C432.789 212.494 431.489 212.088 430.46 212.955L430.487 212.982ZM444.6 218.671C444.6 218.671 444.681 218.887 444.709 218.996C444.925 219.05 445.088 218.996 445.277 218.996C445.034 218.915 444.817 218.779 444.573 218.644L444.6 218.671ZM446.198 219.023C446.063 219.077 445.955 219.023 445.819 219.023C445.955 219.023 446.117 219.05 446.253 219.023H446.171H446.198ZM535.403 334.152C535.403 334.152 535.214 334.125 535.132 334.071L535.241 335.073C535.241 335.073 535.457 335.073 535.539 335.1L535.403 334.152ZM532.64 419.619C532.64 419.619 532.64 419.429 532.64 419.348C532.586 419.646 532.505 419.944 532.451 420.242C532.505 420.025 532.532 419.835 532.613 419.619H532.64ZM526.924 442.942C527.981 442.563 527.466 445.299 527.629 446.599C527.791 445.435 528.17 444.107 528.658 442.455C529.362 440.911 530.256 439.719 530.608 437.497C530.69 436.278 530.608 435.303 530.771 433.949L530.961 432.323L529.85 436.197C529.715 436.197 529.579 436.116 529.471 436.008C529.2 436.035 529.037 435.845 528.929 435.439C528.225 438.039 527.547 440.64 526.789 443.213L526.978 442.942H526.924ZM519.231 466.781C519.096 467.214 519.014 467.621 518.96 468C519.475 466.754 519.962 465.508 520.504 464.343C521.127 463.422 521.479 462.663 521.696 461.986C521.263 462.176 520.748 462.528 520.179 463.151L519.529 464.478C519.15 465.074 518.798 465.508 518.445 465.887C517.958 467.052 517.524 468.244 517.01 469.409C517.822 467.892 518.662 465.86 519.231 466.754V466.781ZM493.767 512.21C493.767 512.21 493.875 512.21 493.93 512.21C493.93 511.857 493.984 511.505 494.065 511.099L493.388 512.507C493.388 512.507 493.632 512.291 493.767 512.21ZM439.968 571.535C441.62 570.641 443.029 570.37 444.763 569.043C446.713 567.499 446.442 566.903 446.821 566.036L446.74 565.9L442.812 568.338C442.677 568.636 442.352 569.07 441.729 569.639C441.214 569.991 440.726 570.235 440.239 570.533C439.616 571.047 438.993 571.562 438.343 572.077L437.151 572.971L436.744 573.458C436.744 573.648 436.744 573.837 436.69 574.108C436.528 574.352 436.338 574.596 436.175 574.813L439.968 571.481V571.535ZM384.462 611.383C385.871 610.76 387.198 610.029 388.58 609.351C387.063 609.812 385.654 610.625 384.218 611.329C384.327 611.329 384.408 611.356 384.462 611.383ZM344.478 623.925C344.478 623.925 344.235 624.196 344.099 624.305C347.377 623.6 350.655 622.869 352.172 621.352C352.389 621.027 352.849 620.891 353.499 620.918C352.578 620.593 352.984 620.052 354.529 619.374C354.447 619.347 354.447 619.293 354.393 619.266C353.12 619.537 351.874 619.754 350.682 619.862C350.113 619.862 349.761 619.835 349.544 619.754C349.084 620.106 348.433 620.431 347.594 620.756L346.646 621.054C346.7 621.623 345.968 622.219 343.476 622.896C344.397 623.031 344.587 623.438 344.451 623.953L344.478 623.925ZM312.215 626.472C313.488 625.957 314.789 626.065 316.116 626.011C315.899 625.957 315.737 625.876 315.628 625.795C314.247 626.011 313.109 626.174 312.08 626.499H312.242L312.215 626.472ZM31.5167 421.84C31.5167 421.84 31.7334 421.921 31.8689 422.029L31.1104 419.754C31.1104 419.754 30.8666 419.7 30.7582 419.673L31.5167 421.84ZM7.73239 281.22C7.92202 282.385 8.22003 283.306 8.35547 284.606L8.49089 286.177L8.7618 282.303C8.89724 282.303 9.03267 282.303 9.16812 282.412C9.41192 282.33 9.60155 282.439 9.76408 282.764C9.89953 280.163 10.0621 277.563 10.2788 274.962L10.1163 275.368C9.19522 275.937 9.03267 273.255 8.57215 272.064C8.65342 273.201 8.68048 274.529 8.54504 276.181C8.19288 277.779 7.59698 279.08 7.67824 281.22H7.73239Z" fill="#813FD6"/>
<path d="M2.53592 305.582L2.61719 308.914C1.91287 310.701 2.61718 315.388 1.42526 316.011C1.23563 313.681 1.12728 311.325 1.04601 308.995V303.875C1.04601 303.875 1.31693 303.875 1.45237 303.956C1.91289 303.767 2.23796 304.254 2.50885 305.582H2.53592Z" fill="#813FD6"/>
<path d="M290.786 167.745L290.812 167.719V167.745H290.786Z" fill="#813FD6"/>
<path d="M339.817 161.977L339.844 162.003L339.817 161.977Z" fill="#813FD6"/>
<path d="M343.961 157.784L343.934 157.758L343.961 157.784Z" fill="#813FD6"/>
<path d="M362.054 160.52C363.165 159.951 364.14 160.411 365.115 160.926C365.657 161.251 366.145 161.603 366.172 162.199C365.955 163.012 365.305 163.527 364.492 163.906C363.517 164.231 362.515 164.421 361.458 163.987C361.187 163.825 360.998 163.635 360.862 163.391L360.294 162.308C361.16 161.901 362.054 161.549 362.027 160.52H362.054Z" fill="#813FD6"/>
<path d="M361.725 168.429L359.369 168.05L357.689 167.616C357.689 167.481 357.743 167.346 357.797 167.21C357.797 166.75 358.041 166.452 358.529 166.289L359.639 166.506C360.1 167.346 361.779 167.183 361.725 168.429Z" fill="#813FD6"/>
<path d="M353.959 168.032C353.282 167.653 353.363 166.948 353.065 166.406L354.393 165.594H354.663L354.934 165.675L355.449 166.271C355.53 167.246 354.392 167.382 353.959 168.005V168.032Z" fill="#813FD6"/>
<path d="M373.404 168.222C372.781 168.249 372.429 167.924 372.131 167.518C372.05 167.301 372.023 167.057 372.05 166.841C372.131 166.624 372.321 166.488 372.592 166.407C373.296 166.136 372.592 165.188 373.431 164.944L375.273 164.836L375.084 165.838C374.569 166.434 374.542 167.274 373.946 167.816C373.784 167.978 373.594 168.141 373.377 168.249L373.404 168.222Z" fill="#813FD6"/>
<path d="M127.817 294.144L127.844 294.117L127.817 294.144Z" fill="#813FD6"/>
<path d="M130.469 346.737L130.442 346.711L130.469 346.737Z" fill="#813FD6"/>
<path d="M124.195 289.25L124.168 289.277L124.141 289.304L124.195 289.25Z" fill="#813FD6"/>
<path d="M137.489 271.836L136.73 274.193L136.026 275.872C135.89 275.845 135.755 275.791 135.646 275.71C135.213 275.628 134.915 275.358 134.861 274.843L135.267 273.732C136.161 273.38 136.27 271.646 137.516 271.863L137.489 271.836Z" fill="#813FD6"/>
<path d="M131.199 272.419C130.955 271.444 130.765 270.468 129.709 270.333C129.329 269.087 129.98 268.112 130.684 267.136C131.117 266.622 131.551 266.161 132.174 266.215C132.932 266.595 133.312 267.326 133.528 268.247C133.664 269.331 133.664 270.387 133.068 271.416C132.878 271.66 132.661 271.85 132.39 271.958L131.199 272.392V272.419Z" fill="#813FD6"/>
<path d="M135.859 279.854C135.372 280.504 134.695 280.342 134.099 280.585L133.503 279.068L133.557 278.77L133.665 278.5L134.342 278.039C135.318 278.066 135.291 279.312 135.832 279.827L135.859 279.854Z" fill="#813FD6"/>
<path d="M137.737 257.594C138.198 258.244 139.01 258.434 139.417 259.166C139.552 259.355 139.633 259.572 139.688 259.816C139.579 260.439 139.173 260.764 138.685 260.98C138.441 261.035 138.225 260.981 138.008 260.926C137.818 260.791 137.71 260.574 137.71 260.303C137.602 259.518 136.491 260.032 136.464 259.166L136.816 257.242L137.737 257.621V257.594Z" fill="#813FD6"/>
<path d="M250.944 548.347C248.803 547.318 246.989 546.045 246.663 545.259C247.259 544.582 249.399 545.07 252.352 545.638C255.928 546.451 259.422 547.751 263.594 549.35C264.624 549.783 265.463 550.216 266.086 550.65L268.633 552.492C265.463 552.031 262.186 551.517 262.619 552.736C258.61 552.302 254.79 550.189 250.944 548.374V548.347Z" fill="#813FD6"/>
<path d="M220.547 528.951C218.488 527.732 216.456 526.486 214.452 525.212L214.939 524.318C216.51 524.616 216.51 523.614 218.38 524.156C218.867 524.264 219.463 524.454 220.167 524.779C222.172 525.998 223.445 527.163 224.502 528.273C224.827 528.734 224.962 529.086 224.854 529.303C224.583 529.411 223.987 529.222 223.12 528.788C220.763 527.705 223.256 530.332 220.547 528.978V528.951Z" fill="#813FD6"/>
<path d="M290.108 553.427L289.051 553.264L287.995 553.02C287.236 552.695 286.505 552.397 285.774 552.018C285.015 550.907 289.431 551.503 290.758 551.016C293.521 551.774 293.494 552.478 294.93 553.183C293.331 553.291 291.733 553.372 290.108 553.427Z" fill="#813FD6"/>
<path d="M335.482 561.41L335.536 561.383L335.672 561.41H335.482Z" fill="#813FD6"/>
<path d="M261.075 543.793C263.893 545.012 267.062 545.77 270.015 546.773C272.209 547.477 274.349 548.425 276.57 548.885C276.57 549.021 276.489 549.156 276.354 549.265C276.462 549.725 275.731 549.996 273.916 549.698L269.608 548.262C267.55 546.8 261.238 545.337 261.075 543.766V543.793Z" fill="#813FD6"/>
<path d="M287.452 208.184C287.56 207.968 287.695 207.751 287.912 207.561C288.616 207.263 289.212 207.372 289.781 207.643C289.998 207.805 290.133 207.995 290.188 208.239C290.188 208.482 290.025 208.699 289.754 208.862C289.05 209.43 290.323 209.972 289.483 210.541L287.397 211.462L287.099 210.487C287.37 209.728 287.018 208.97 287.424 208.211L287.452 208.184Z" fill="#813FD6"/>
<path d="M307.525 201.617C307.552 201.753 307.552 201.888 307.525 202.051C307.661 202.484 307.498 202.863 306.929 203.161L305.467 203.324C304.6 202.674 302.568 203.432 302.162 202.24L305.25 201.78L307.525 201.617Z" fill="#813FD6"/>
<path d="M300.885 210.562C300.126 210.48 299.449 210.372 299.151 209.803C299.097 208.936 299.639 208.205 300.478 207.528C301.535 206.769 302.673 206.254 304.108 206.309C304.488 206.363 304.786 206.471 305.029 206.661L306.086 207.501C305.165 208.151 304.244 208.801 304.623 209.776C303.54 210.697 302.212 210.562 300.858 210.535L300.885 210.562Z" fill="#813FD6"/>
<path d="M311.99 202.621H311.638L310.825 202.187C310.419 201.266 311.827 200.833 312.179 200.102C313.155 200.291 313.263 200.996 313.805 201.429L312.342 202.567L311.99 202.621Z" fill="#813FD6"/>
<path d="M396.047 202.609L396.02 202.636H395.993L396.047 202.609Z" fill="#813FD6"/>
<path d="M331.711 203.159L331.685 203.133L331.711 203.159Z" fill="#813FD6"/>
<path d="M327.223 207.883H327.251L327.305 207.91L327.223 207.883Z" fill="#813FD6"/>
<path d="M832.2 596.2C783.8 596.2 744.8 582.4 715.2 554.8C685.6 526.8 670 494.2 668.4 457H755.4C758.6 475.8 767.2 490.4 781.2 500.8C795.2 510.8 812.2 515.8 832.2 515.8C850.2 515.8 864.8 512 876 504.4C887.2 496.4 892.8 485.8 892.8 472.6C892.8 449 873.8 431.8 835.8 421L790.8 407.8C756 397.8 728.8 382.2 709.2 361C689.6 339.8 679.6 313.4 679.2 281.8C679.2 243 692.2 212.4 718.2 190C744.2 167.2 778.8 155.8 822 155.8C865.6 155.8 901 169 928.2 195.4C955.4 221.4 969.8 251.4 971.4 285.4H885C880.6 268.6 872.6 256.2 861 248.2C849.4 240.2 836.4 236.2 822 236.2C806 236.2 792.8 239.8 782.4 247C772.4 253.8 767.2 263.4 766.8 275.8C766.4 288.6 770.6 299 779.4 307C788.2 315 801.8 321.6 820.2 326.8L870 340.6C943.6 361 980.4 404 980.4 469.6C980.4 506.4 966.6 536.8 939 560.8C911.8 584.4 876.2 596.2 832.2 596.2ZM1123.12 589H1040.92V139H1123.12V323.2C1141.52 296 1170.12 282.4 1208.92 282.4C1244.92 282.4 1273.12 294.4 1293.52 318.4C1314.32 342 1324.72 373.6 1324.72 413.2V589H1242.52V427C1242.52 405 1237.92 388 1228.72 376C1219.52 363.6 1206.52 357.4 1189.72 357.4C1169.72 357.4 1153.52 364.6 1141.12 379C1129.12 393.4 1123.12 414.6 1123.12 442.6V589ZM1440.9 239.8C1426.9 239.8 1414.7 234.8 1404.3 224.8C1393.9 214.4 1388.7 202 1388.7 187.6C1388.7 173.2 1393.9 161 1404.3 151C1414.7 140.6 1426.9 135.4 1440.9 135.4C1455.7 135.4 1468.1 140.6 1478.1 151C1488.5 161 1493.7 173.2 1493.7 187.6C1493.7 202 1488.5 214.4 1478.1 224.8C1468.1 234.8 1455.7 239.8 1440.9 239.8ZM1400.1 589V289H1482.3V589H1400.1ZM1593.03 589V361H1532.43V289H1593.03V244C1593.03 208.8 1603.63 182 1624.83 163.6C1646.43 144.8 1674.03 135.4 1707.63 135.4C1728.03 135.4 1745.43 137.6 1759.83 142V214.6C1752.63 211.4 1741.43 209.8 1726.23 209.8C1708.23 209.8 1695.23 213.8 1687.23 221.8C1679.23 229.4 1675.23 242.2 1675.23 260.2V289H1747.23V361H1675.23V589H1593.03ZM1939.23 592.6C1905.63 592.6 1878.03 583.4 1856.43 565C1835.23 546.2 1824.63 519.2 1824.63 484V361H1776.63V289H1824.63V205.6H1906.83V289H1991.43V361H1906.83V467.8C1906.83 485.8 1910.83 498.8 1918.83 506.8C1926.83 514.4 1939.83 518.2 1957.83 518.2C1973.03 518.2 1984.23 516.6 1991.43 513.4V586C1977.03 590.4 1959.63 592.6 1939.23 592.6ZM2050.49 589V289H2132.69V337C2137.89 322.2 2147.29 310 2160.89 300.4C2174.89 290.4 2190.29 285.4 2207.09 285.4C2217.49 285.4 2226.69 286.6 2234.69 289V372.4C2221.49 368 2209.09 365.8 2197.49 365.8C2177.89 365.8 2162.09 373 2150.09 387.4C2138.49 401.4 2132.69 420.8 2132.69 445.6V589H2050.49ZM2414.66 595.6C2368.66 595.6 2330.86 580.8 2301.26 551.2C2272.06 521.6 2257.46 484 2257.46 438.4C2257.46 393.6 2272.26 356.4 2301.86 326.8C2331.86 297.2 2369.66 282.4 2415.26 282.4C2461.26 282.4 2499.46 298.2 2529.86 329.8C2560.26 361 2574.26 403.8 2571.86 458.2H2337.86C2339.46 477 2347.26 492.8 2361.26 505.6C2375.26 518 2394.46 524.2 2418.86 524.2C2433.66 524.2 2446.66 521.4 2457.86 515.8C2469.46 509.8 2477.66 501.6 2482.46 491.2H2568.26C2559.46 522 2541.06 547.2 2513.06 566.8C2485.06 586 2452.26 595.6 2414.66 595.6ZM2412.86 349C2394.06 349 2378.26 354 2365.46 364C2353.06 373.6 2344.86 387 2340.86 404.2H2481.86C2477.46 385.4 2468.66 371.6 2455.46 362.8C2442.66 353.6 2428.46 349 2412.86 349ZM3009.74 589V428.8C3009.74 381.2 2994.14 357.4 2962.94 357.4C2944.94 357.4 2930.54 364.2 2919.74 377.8C2909.34 391.4 2903.74 411.6 2902.94 438.4V589H2820.74V428.8C2820.74 381.2 2805.14 357.4 2773.94 357.4C2755.54 357.4 2740.94 364.6 2730.14 379C2719.34 393.4 2713.94 414.6 2713.94 442.6V589H2631.74V289H2713.94V323.2C2732.74 296 2759.34 282.4 2793.74 282.4C2835.74 282.4 2866.74 300.8 2886.74 337.6C2895.54 320.4 2908.74 307 2926.34 297.4C2943.94 287.4 2961.74 282.4 2979.74 282.4C3015.34 282.4 3042.94 294.2 3062.54 317.8C3082.14 341.4 3091.94 373.8 3091.94 415V589H3009.74ZM3208.09 239.8C3194.09 239.8 3181.89 234.8 3171.49 224.8C3161.09 214.4 3155.89 202 3155.89 187.6C3155.89 173.2 3161.09 161 3171.49 151C3181.89 140.6 3194.09 135.4 3208.09 135.4C3222.89 135.4 3235.29 140.6 3245.29 151C3255.69 161 3260.89 173.2 3260.89 187.6C3260.89 202 3255.69 214.4 3245.29 224.8C3235.29 234.8 3222.89 239.8 3208.09 239.8ZM3167.29 589V289H3249.49V589H3167.29ZM3473.62 592.6C3440.02 592.6 3412.42 583.4 3390.82 565C3369.62 546.2 3359.02 519.2 3359.02 484V361H3298.42V289H3359.02V205.6H3441.22V289H3525.82V361H3441.22V467.8C3441.22 486.2 3445.22 499.4 3453.22 507.4C3461.22 515 3474.22 518.8 3492.22 518.8C3505.02 518.8 3516.22 517 3525.82 513.4V586C3511.42 590.4 3494.02 592.6 3473.62 592.6Z" fill="#813FD6"/>
</svg>
