<svg width="390" height="390" viewBox="0 0 390 390" fill="none" xmlns="http://www.w3.org/2000/svg">
<path d="M194.305 389.647C154.705 389.545 118.756 385.504 90.5906 379.558C76.5113 376.585 64.3327 373.127 54.5958 369.425C44.9431 365.755 37.4339 361.752 32.9025 357.562C27.175 352.438 22.3962 343.528 18.3948 332.508C14.3523 321.38 10.9712 307.714 8.25499 292.706C2.82094 262.682 0 226.991 0 194.844C0 157.034 3.46034 120.746 9.2355 91.8048C12.1215 77.3374 15.5992 64.6425 19.5419 54.4847C23.4481 44.4262 27.9349 36.5199 33.0231 31.962C37.5274 27.8023 45.0162 23.8218 54.6483 20.1695C64.3676 16.4848 76.5336 13.038 90.6018 10.0729C118.745 4.14208 154.684 0.101953 194.272 0H195.612C235.214 0.101953 271.164 4.14208 299.327 10.0885C313.408 13.0612 325.586 16.5196 335.322 20.2222C344.975 23.8922 352.485 27.8955 357.017 32.084C362.077 36.6139 366.542 44.5002 370.428 54.5384C374.354 64.6789 377.819 77.3623 380.699 91.8212C386.458 120.746 389.919 157.034 389.919 194.844C389.919 232.653 386.468 268.87 380.714 297.76C377.838 312.202 374.373 324.875 370.444 335.028C366.554 345.087 362.087 352.998 357.027 357.594C352.486 361.826 344.972 365.863 335.317 369.554C325.579 373.278 313.405 376.746 299.333 379.715C271.18 385.658 235.249 389.647 195.647 389.647H194.305Z" fill="#0361F0"/>
<path d="M287.194 205.76L279.567 119.023H233.488C233.488 119.023 198.408 185.808 195.303 194.891H194.816L157.828 119.023H111.528L103.899 194.229L97.4688 270.552H125.631C137.782 270.552 142.572 265.658 143.548 253.711C143.548 253.711 148.337 183.817 147.584 173.612H148.071L149.49 178.258C151.397 184.48 177.653 244.171 177.653 244.171H212.245C212.245 244.171 238.5 185.393 241.826 173.612H242.313L246.349 253.711C247.325 265.699 252.336 270.552 264.266 270.552H292.427L287.194 205.76Z" fill="white"/>
</svg>
