<svg width="365" height="379" viewBox="0 0 365 379" fill="none" xmlns="http://www.w3.org/2000/svg">
<g filter="url(#filter0_d_3794_1396)">
<path d="M5.34433 136.284L5.48227 135.341C5.87869 133.811 6.48187 133.349 6.94724 132.086C7.48154 130.912 8.01587 129.703 8.58466 130.396C8.87766 131.41 9.23956 132.317 9.37744 133.633C9.68768 132.46 10.1014 132.406 10.4633 131.748L10.7046 133.1C10.8942 131.108 11.1183 129.133 11.3596 127.159C11.2217 126.963 11.1183 126.732 11.0493 126.305C11.0321 126.448 10.9976 126.625 10.9976 126.679C9.61874 130.645 9.51538 127.266 9.30856 125.772C9.29132 126.145 9.15338 126.732 8.89487 127.426C8.79144 127.497 8.70529 127.497 8.61911 127.444C7.96414 127.622 7.39542 129.525 6.86111 130.645L6.18893 131.41V131.57C5.93039 132.691 5.79251 134.309 5.27545 133.847C5.27545 131.641 4.01718 130.503 5.34433 127.141L6.29233 126.999L6.43021 126.127C7.17133 126.287 7.25754 124.278 7.58499 122.748C8.18823 122.374 9.08447 124.1 9.08447 119.44C9.58432 118.568 9.73941 117.358 9.91177 116.113C10.0841 115.064 10.3254 114.157 10.7046 113.356C11.1355 112.218 11.5492 113.765 11.98 111.471C12.6522 110.617 13.221 110.688 13.9277 109.479C14.2034 109.105 14.4792 108.785 14.7205 108.714C14.7205 108.714 14.7205 108.75 14.7377 108.767C14.8067 108.465 14.8929 108.163 14.9618 107.86L14.8239 108.091C14.686 107.718 14.3068 107.949 14.4964 106.811C14.686 105.833 14.9273 104.925 15.2893 104.054C15.927 102.453 16.2717 100.923 16.4268 99.3937C16.513 98.9312 16.6164 98.4688 16.806 98.0063C18.4261 94.0576 16.5303 96.3521 16.5303 95.2671C16.0822 95.6228 16.4613 93.1682 15.4789 95.3738C15.1686 96.7434 14.8239 98.1308 14.2896 99.5537C14.2551 99.6427 14.2206 99.7138 14.1689 99.785C14.0828 101.155 14.1 102.382 14.0655 103.68C13.9966 104.534 13.9449 105.459 13.7036 106.526C13.3761 107.807 12.9279 108.892 12.4971 109.959C11.4974 112.823 10.8597 112.396 10.2565 111.684C10.1875 111.542 10.1014 111.435 10.0152 111.346C10.6012 108.785 9.92902 107.914 10.3427 105.655C11.3079 103.912 11.5492 102.097 11.7732 100.265C11.7215 100.354 11.6698 100.443 11.6009 100.514C11.2389 100.817 10.9632 100.834 10.7563 100.603C10.4633 100.123 10.222 99.536 10.3254 98.1842L11.1872 96.3165C12.0318 94.9114 12.566 93.3995 12.9797 91.8342C12.8935 91.9232 12.8073 91.8876 12.7211 91.7275C12.9797 90.1445 13.3244 88.5792 13.7036 87.014C14.4102 84.0258 15.7546 81.8736 17.168 79.7213C17.5127 79.2589 17.7022 79.1699 17.7884 79.3478C18.2365 78.6008 18.6674 78.1027 19.0466 77.9782C19.15 77.9782 19.2707 77.9604 19.3913 77.9249C19.7877 77.0533 20.2531 76.164 20.7357 75.9149C20.977 75.7726 21.1149 75.8616 21.1494 76.1462L21.0977 76.3596C21.4251 76.3596 21.6147 76.7865 22.3386 75.7371C22.9763 74.99 23.3038 75.0612 23.4934 75.4169C23.5451 75.7193 23.5623 76.075 23.5796 76.4308L23.7864 75.8082C23.8898 75.5236 24.0105 75.2746 24.1139 74.99C24.3207 73.5315 24.3724 72.2686 23.9071 71.7528C23.8554 70.7745 24.8895 69.2093 25.3032 67.982L26.3028 66.0432C27.2335 64.638 27.9229 63.3574 28.3882 62.0411C28.1297 62.0411 29.0605 60.2802 28.0091 61.4008L28.2159 60.3692L29.4224 58.4482C30.267 57.4521 31.1977 56.5094 32.0767 55.5489C32.4042 55.0331 32.7317 54.5173 33.0247 54.0014C33.3521 53.4501 33.6968 52.9164 34.0588 52.3828L34.6448 51.618L34.9723 50.8709L36.7992 48.0073C38.3332 46.2286 40.0223 44.1475 41.7114 42.7601L42.0905 42.2621C41.8148 42.1731 41.5735 42.0308 41.3149 41.9063C41.177 41.7463 41.1426 41.4972 41.4701 40.9281C41.6942 40.6257 41.9182 40.3411 42.1423 40.0565C43.5901 38.2422 44.6931 37.7976 45.8307 37.175C48.0196 36.5169 47.3991 35.4319 48.1574 34.5781C48.3298 34.5248 48.4333 34.507 48.5711 34.4892C48.5711 34.2224 48.709 33.8489 48.9503 33.3864C50.7601 32.337 50.2085 33.6888 50.76 33.9378L50.3809 34.3113L49.9844 34.6671C49.657 34.8094 49.4157 34.8805 49.2089 34.9161C49.2089 35.0762 49.1399 35.2896 49.0192 35.5564L48.4677 36.09C49.1916 35.8588 49.4329 36.09 49.2261 36.7481C49.8466 36.2145 50.467 35.6631 50.9324 35.6276C51.9666 34.8094 52.3802 34.0445 53.0179 33.2441L52.0355 33.0307L51.4839 33.3153C51.4323 32.0168 54.5174 30.0958 55.4137 28.6907C56.7236 27.7835 56.9648 27.2855 56.6891 26.9831C56.758 26.6452 57.1027 26.1649 57.7577 25.6669C59.171 24.7242 60.2396 24.404 61.4288 23.8704C62.0666 23.6214 62.6353 23.4257 63.1007 23.3724C63.5316 23.3368 63.6695 23.4791 63.5316 23.7815H63.566C64.152 23.3368 64.7898 22.9811 65.393 22.6075L65.9273 23.0344L65.5999 23.2123L65.0483 24.3329L65.3069 24.1728C65.7722 24.0838 65.9791 24.155 66.0308 24.3151C66.5995 23.8526 67.2027 23.4079 67.8232 22.9633C67.8232 22.8921 67.875 22.7854 67.9612 22.6609C67.1338 22.9633 66.5651 23.0344 66.4617 22.6965C67.1166 21.647 68.0128 20.562 69.8743 19.3347C69.7019 19.3703 69.5468 19.4059 69.4089 19.4237C68.8918 19.4237 68.4955 19.3347 68.2369 19.1213C68.1163 18.8189 68.3748 18.3387 69.3917 17.6628L72.5975 16.1687C74.9588 14.6034 77.3717 13.4651 79.3021 13.4651C79.5434 13.5184 79.5951 13.6785 79.4745 13.9097C80.8878 13.4651 82.3528 13.305 83.5765 12.1488L87.0754 11.4018L87.8854 11.0994L89.1953 9.96103C93.2112 8.60923 96.1068 6.38586 100.64 5.7811L101.777 6.03012C102.019 5.81668 102.294 5.60323 102.691 5.372C105.293 4.00241 108.775 3.52217 111.964 2.91741C113.291 2.68618 114.566 2.33044 115.928 2.22372C117.255 2.82847 118.444 1.8324 119.702 1.77904C121.874 1.53003 123.994 1.5656 126.166 1.40552C126.631 1.40552 127.096 1.4411 127.51 1.47667C128.406 1.61896 129.302 1.61897 130.181 1.51224C129.716 1.38774 129.492 1.20986 129.561 0.960847C130.25 0.373879 131.664 0.178224 133.422 0.14265C134.99 -0.159727 136.438 0.107077 137.92 0.14265C138.403 0.516176 140.092 0.676257 140.23 1.12093C141.04 1.19208 141.85 1.24544 142.677 1.28101C142.453 0.907487 143.349 0.640684 144.763 0.427241C145.831 0.658471 146.9 0.925272 147.969 1.20986L148.589 1.51224H148.675C151.123 1.60118 153.967 2.49052 155.759 1.44109C156.087 1.24544 156.483 1.06757 157.19 0.996422C159.482 0.996422 159.982 2.22372 162.55 2.06363C164.342 2.20593 165.825 2.117 167.272 1.95692C169.582 2.33044 171.978 3.09528 173.701 2.31266C175.339 2.54389 176.7 3.09528 178.475 3.18421C180.733 3.6111 181.681 4.39373 183.353 4.9807C183.594 5.26529 183.922 5.58545 183.663 5.74553L184.267 5.81668C184.473 5.81668 184.68 5.85225 184.904 5.88783L185.542 5.97676C186.49 6.11905 187.421 6.26135 188.369 6.43922C188.507 6.43922 188.644 6.43922 188.817 6.42143C189.006 6.03012 189.299 5.67439 191.161 5.90562C193.505 6.70603 196.107 7.32857 198.796 7.77324L198.831 7.87996H198.951C200.675 8.25348 202.398 8.69816 204.122 9.08947C204.811 9.0539 205.604 9.1784 206.432 9.33849C207.276 9.51635 208.207 9.78316 208.689 9.55193L209.861 9.49857C211.861 10.2812 213.636 11.3662 216.187 11.2239L217.255 11.5263C220.53 12.2911 223.839 12.8781 227.08 13.9809C227.39 14.0342 227.683 14.1232 227.993 14.2299L228.924 15.8307C229.2 15.9196 229.458 15.9908 229.734 16.0619L230.079 16.1687C229.786 14.639 230.492 14.5856 234.388 15.8663C236.059 16.7378 237.421 17.8406 239.903 18.0007C241.196 17.9474 242.35 18.6588 243.522 19.2102C244.47 19.7261 245.28 20.2241 245.763 20.7577C246.056 21.1134 246.056 21.3269 245.763 21.398L245.867 21.4336C246.918 21.5403 247.866 21.9138 248.728 22.5186C248.641 22.3407 248.831 22.2518 249.227 22.234C249.624 22.2696 250.055 22.3407 250.52 22.4297C252.089 22.7854 253.243 22.7676 254.812 23.2123C255.536 23.4613 256.173 23.7459 256.587 24.1372L257.535 24.8843C258.414 25.7025 259.707 26.1293 261.068 26.574C264.102 27.8191 266.687 29.4199 269.531 30.8784L271.565 31.8389C273.374 32.586 274.96 33.3508 274.202 33.7599H274.219C275.839 34.5603 277.459 35.2185 279.079 35.9299C280.872 36.677 282.613 37.4596 284.388 38.4023C288.8 40.7146 293.592 42.8846 296.884 46.3175C297.211 46.6555 298.107 47.029 298.745 47.3847C306.191 51.956 313.309 57.0786 319.497 63.0016C319.704 63.2506 319.962 63.4641 320.272 63.6775C323.22 66.5412 326.822 69.1381 329.493 72.2152C331.251 74.1896 333.509 76.1284 334.871 78.1561C335.509 78.8142 336.319 79.5079 336.301 80.0237L337.922 81.1621C340.903 82.9941 342.868 85.342 344.057 87.9745C346.66 91.9409 351.245 95.7473 353.192 99.9451C353.227 100.55 355.847 103.574 353.434 101.902C352.486 101.848 350.831 100.176 349.831 98.9312C346.815 95.2849 343.661 92.6346 340.472 89.8065C347.884 97.6683 354.812 106.01 361 114.922C359.759 114.086 358.484 113.267 357.225 112.431C357.484 112.93 357.725 113.445 357.932 113.943C357.932 114.548 360.311 117.643 358.035 115.882C357.088 115.775 355.571 114.05 354.675 112.769C353.537 111.169 352.331 109.781 351.124 108.465C331.51 96.0319 310.689 85.3598 288.973 76.7687C274.15 70.9168 259.052 65.7408 243.074 62.1123C239.576 61.3119 236.008 60.5826 232.423 59.9423C232.423 59.9778 232.457 59.9779 232.474 60.0134C231.992 60.4937 231.423 60.1024 230.872 60.0668C230.872 59.9601 230.872 59.8711 230.906 59.7644C230.958 59.7288 230.992 59.711 231.044 59.6933C230.458 59.5865 229.855 59.5154 229.269 59.4087C229.682 59.6043 230.182 59.711 230.199 60.2624C230.251 60.2802 230.303 60.298 230.372 60.3336L230.268 60.9739C230.027 61.5075 229.786 62.0589 229.131 62.3079C228.993 62.3791 228.855 62.4324 228.7 62.4858C228.269 62.6281 227.855 62.8238 227.528 63.1261C227.183 63.4819 227.183 64.0866 226.666 64.3356C226.856 64.887 226.597 65.2428 226.063 65.5096L225.822 65.474C225.856 64.9938 225.822 64.5135 225.546 64.0688C225.442 64.0333 225.339 63.9977 225.253 63.9621C224.787 63.6064 224.701 63.0194 224.305 62.6103C223.96 62.1301 223.598 61.6498 223.874 61.0273C224.253 60.6715 224.598 60.2624 225.08 60.049C224.701 59.8 224.718 59.3731 224.529 59.0351L225.029 58.715C224.339 58.626 223.65 58.5371 222.978 58.466C222.909 58.6083 222.805 58.7328 222.667 58.8395C222.719 58.8395 222.788 58.8573 222.788 58.8573C224.081 59.9423 222.874 60.3158 222.34 60.6715C222.478 60.6715 222.667 60.7427 222.892 60.9561C222.892 61.0451 222.892 61.1518 222.892 61.2407C222.892 61.8988 223.512 62.2901 223.839 62.806L224.029 63.4463H224.081C224.443 63.642 224.96 63.6953 224.753 64.2645C224.012 64.389 223.529 65.6697 222.512 64.638L222.547 63.6775L222.271 63.6064C222.374 62.8415 221.72 62.8949 221.202 62.7704C221.116 62.2012 221.754 61.0806 220.168 61.632C219.893 61.2585 219.479 61.2763 219.065 61.2941C218.703 61.2941 218.41 61.1518 218.135 60.9383C217.755 60.7071 218.307 59.9956 217.514 59.9956C217.221 59.4798 217.255 58.8751 216.842 58.4126C216.704 58.2169 216.601 58.0213 216.566 57.7901C216.48 57.7901 216.394 57.7901 216.308 57.7723L216.342 57.8256C216.204 58.0391 216.29 58.377 215.894 58.4304C215.549 58.466 215.239 58.377 214.911 58.2703C214.343 58.0391 213.791 58.1102 213.257 58.3592C213.102 58.3948 212.929 58.3948 212.757 58.3592C211.326 57.9679 212.205 59.1419 211.826 59.462C211.964 59.7822 211.12 60.1735 211.912 60.4581C212.395 60.3158 212.878 60.2624 213.377 60.4225L213.464 60.4759C213.929 60.2091 214.343 59.8711 214.791 59.5688C215.084 59.3909 215.411 59.2664 215.773 59.2842C216.221 59.3375 216.601 59.5332 216.962 59.7644C217.945 60.2447 217.773 60.9739 217.531 61.721C217.48 61.8277 217.445 61.9344 217.411 62.0411C216.549 61.9166 216.239 62.806 215.497 62.8771C214.911 62.2546 214.291 62.5214 213.688 62.7704C213.722 62.806 213.757 62.8238 213.774 62.8593C213.877 63.1261 213.895 63.4107 213.826 63.6775C213.671 64.1044 213.481 64.4957 213.05 64.727L212.43 64.3534C211.947 63.9443 211.43 63.9088 210.913 63.9977C210.947 64.0688 210.947 64.1578 210.896 64.2823L209.362 64.9226C208.379 65.2784 207.621 64.7981 206.828 64.4068C206.656 64.2645 206.604 64.1222 206.656 63.9799C206.38 63.8554 206.19 63.6597 206.104 63.3574L206.052 63.055C205.742 63.0194 205.432 63.0016 205.277 62.6815C205.208 62.5214 205.208 62.3613 205.294 62.2012C205.328 62.1834 205.328 62.1656 205.363 62.1478C205.328 61.8455 205.432 61.4897 205.018 61.2941C204.708 61.0451 204.691 60.7249 204.76 60.3869C204.846 60.1913 204.949 60.0134 205.053 59.8534L204.829 59.9601C204.725 59.9956 204.639 59.9956 204.536 60.0312C204.053 60.5115 203.674 61.0273 203.605 61.6854C203.329 62.1656 202.726 62.0589 202.295 62.2901L201.588 62.3791C201.037 62.2368 200.571 62.3791 200.123 62.6815C200.175 62.9127 199.537 63.055 200.02 63.3574L199.71 63.7487H198.986L197.728 63.2506C197.538 63.2862 197.331 63.3218 197.159 63.3751C196.952 63.4285 196.745 63.4641 196.538 63.4819H196.228L195.987 63.7131L194.918 64.0866C194.16 63.9443 193.315 64.1756 192.609 63.8376L192.419 63.891L192.557 64.7092C192.557 64.9226 192.522 65.1183 192.333 65.2606C192.212 65.2784 192.109 65.3139 192.005 65.3673C191.299 65.6341 190.937 65.1538 190.506 64.7981C189.782 63.7131 189.782 64.976 189.437 65.1005C189.386 65.0293 189.351 64.9582 189.299 64.887C189.265 65.0827 189.162 65.2784 189.024 65.474C188.351 65.0649 188.696 64.4068 188.576 63.8554H188.748L188.92 63.8376C189.041 63.9443 189.127 64.051 189.179 64.1756C189.213 64.051 189.265 63.9265 189.334 63.802L189.575 63.7487C189.334 63.4463 189.299 63.1083 189.455 62.7348C189.179 62.7348 188.92 62.7348 188.782 62.468C188.351 62.3969 188.11 62.717 187.8 62.8949L188.076 63.7131L188.283 63.8732C188.11 64.8337 186.921 64.4068 186.49 65.0293C185.973 64.9582 185.852 65.2072 185.904 65.6163C185.852 65.8475 185.68 65.9898 185.439 66.0432C184.904 66.0432 184.542 65.6875 184.112 65.474C183.887 65.3495 183.681 65.1894 183.526 64.976C183.388 64.7625 183.353 64.5847 183.405 64.4068L182.715 64.4424L182.56 63.802H182.681L182.939 63.1261H182.836C182.664 62.9838 182.595 62.806 182.595 62.6459C182.371 62.7526 182.129 62.8593 181.888 62.9305C181.888 62.9838 181.854 63.055 181.819 63.1083C182.129 63.2506 182.319 63.4819 182.336 63.8198C182.043 64.389 181.681 64.887 180.992 65.0293C181.061 65.0827 181.113 65.1183 181.164 65.1894C181.337 65.4562 181.474 65.723 181.561 66.0254C181.595 66.3633 181.474 66.6124 181.113 66.7369L179.992 66.6835C179.148 67.0037 178.355 67.146 177.665 66.4345C177.579 66.2922 177.562 66.1321 177.596 65.972C177.097 65.8297 176.58 65.474 176.183 66.2033L174.959 65.7942C174.873 65.7942 174.77 65.812 174.684 65.8475L174.287 66.5768C172.943 66.7902 172.133 68.2488 170.633 68.0709L170.202 67.6618C170.151 67.8219 170.082 67.982 169.961 68.142C169.237 69.0492 168.117 69.1025 167.134 69.4583C166.721 69.5828 166.359 69.8318 165.911 69.8318C165.342 69.1915 165.152 70.1342 164.739 70.152C164.049 70.312 163.343 70.312 162.67 70.4899C162.515 70.4899 162.36 70.4899 162.205 70.4366C161.86 70.2943 161.585 70.3832 161.326 70.5255C161.516 70.6144 161.636 70.7923 161.671 71.0235C161.602 71.6105 161.205 71.8773 160.654 71.984C160.24 72.3576 159.723 72.2508 159.241 72.3398C158.982 72.0196 158.396 72.0196 158.224 71.6105C157.948 71.6283 157.689 71.6816 157.431 71.735C157.62 72.073 157.431 72.4287 157.069 72.7844L155.862 72.4821L155.569 72.2864H155.552C154.794 72.5532 153.656 72.1975 153.518 73.4959C153.484 73.7271 153.449 73.9584 153.277 74.154C152.639 74.5631 152.036 73.5671 151.398 74.2074C150.847 74.4208 150.485 74.8477 150.175 75.3102C149.416 75.4525 148.486 75.3813 148.382 76.4841C147.865 76.662 147.296 76.5019 146.831 76.8932C146.107 77.1244 145.538 76.6798 144.883 76.6086C144.694 76.413 144.47 76.2351 144.453 76.0217L144.28 76.1106C144.28 76.1106 144.16 76.1995 144.091 76.2173L143.901 76.324C143.625 76.4841 143.349 76.6264 143.056 76.7509C143.039 76.8043 143.005 76.8576 142.97 76.8932C143.108 77.2845 143.212 77.6758 142.694 78.0316C141.781 78.0316 140.971 78.3695 140.195 78.832L140.144 78.7608H140.109L138.506 79.5435C138.386 79.8103 138.196 79.9881 137.955 80.1304C137.713 80.2727 137.386 80.3795 137.438 80.753L137.265 81.2154C136.524 81.3222 135.628 81.0731 135.318 82.1581L134.99 82.336C134.077 82.9941 133.301 83.8123 132.301 84.3459C132.232 84.4349 132.146 84.4882 132.043 84.5238L131.009 83.7056C131.009 83.7056 130.854 83.7945 130.768 83.8657L130.664 83.9368C131.595 84.9685 131.543 85.2886 130.423 86.0357C129.751 86.1246 128.94 85.8756 128.682 86.9072C128.63 87.5298 128.113 87.5476 127.7 87.6899C127.32 87.761 126.958 87.761 126.596 87.6365C126.355 87.5298 126.217 87.3697 126.2 87.1918H126.166C126.045 87.6365 125.769 87.8322 125.356 87.8322C125.476 87.9211 125.528 88.0634 125.511 88.259C125.476 88.4191 125.407 88.5792 125.338 88.7215C125.045 89.2018 125.028 89.7887 124.718 90.269C124.545 90.4646 124.356 90.5714 124.097 90.5358H123.598C123.063 90.4113 122.753 90.7492 122.494 91.1761C121.736 91.9409 120.702 92.2078 119.875 92.8837L119.323 93.3817C118.909 93.8797 118.496 94.2888 118.168 93.6663C117.755 94.1109 117.427 94.609 117.082 95.107C116.703 95.6406 116.376 96.2098 115.928 96.7078C114.79 97.9173 114.066 99.5715 112.222 99.8739C112.032 99.9095 111.929 100.247 111.808 100.443C110.016 102.72 108.206 104.908 105.931 106.704C105.828 106.757 105.741 106.829 105.69 106.953C104.587 107.825 104.018 109.248 102.863 110.03C102.156 110.582 101.708 111.489 100.829 111.898C100.64 112.147 100.519 112.503 100.14 112.378L100.054 113.125C100.105 114.566 99.416 115.313 98.1751 115.651C96.7101 116.629 96.5032 118.853 94.8486 119.689C94.4521 119.653 93.9523 120.969 93.6765 119.689C93.1595 119.137 93.3491 118.301 93.6248 117.803C94.4177 116.451 94.6418 114.993 95.0209 113.57C91.1257 120.311 87.8165 127.444 85.5242 134.825C85.5242 134.843 85.5242 134.879 85.5069 134.896C85.5414 134.896 85.5414 134.861 85.5931 134.843C85.9723 135.448 85.5069 136.017 85.3863 136.604C85.2828 136.604 85.1967 136.568 85.1105 136.515C85.0932 136.479 85.0933 136.444 85.076 136.408C84.9037 136.995 84.7485 137.582 84.5762 138.151C84.8002 137.742 85.0071 137.298 85.4897 137.351C85.5241 137.28 85.5414 137.244 85.5759 137.173L86.1791 137.369C86.6617 137.707 87.1443 138.045 87.2822 138.774C87.3167 138.934 87.3683 139.094 87.3856 139.272C87.4545 139.77 87.5752 140.25 87.8337 140.624C88.1267 141.051 88.6955 141.122 88.8679 141.709C89.4194 141.566 89.7296 141.904 89.9192 142.509L89.8503 142.758C89.3849 142.669 88.9196 142.651 88.4542 142.9C88.4025 143.007 88.3508 143.114 88.2991 143.221C87.8854 143.683 87.3167 143.719 86.8685 144.092C86.3515 144.412 85.8344 144.768 85.2829 144.377C84.9899 143.914 84.6451 143.487 84.5072 142.954C84.2142 143.345 83.8006 143.274 83.4559 143.452L83.2318 142.9C83.0422 143.648 82.8871 144.395 82.7148 145.124C82.8354 145.213 82.9216 145.319 82.9905 145.48C82.9905 145.426 83.025 145.355 83.025 145.337C84.2487 144.039 84.4556 145.408 84.7141 146.031C84.7141 145.889 84.8347 145.693 85.0588 145.462C85.1622 145.462 85.2484 145.462 85.3345 145.515C85.9723 145.586 86.4377 144.964 86.972 144.661L87.6269 144.519V144.466C87.8682 144.092 88.0061 143.523 88.5059 143.825C88.5231 144.661 89.6779 145.319 88.5576 146.298L87.6269 146.155L87.5234 146.458C86.7996 146.262 86.7651 146.991 86.5755 147.525C86.024 147.561 85.0243 146.742 85.3345 148.539C84.9381 148.806 84.9037 149.268 84.8692 149.713C84.8175 150.104 84.6624 150.424 84.4211 150.691C84.1625 151.082 83.5421 150.424 83.4386 151.296C82.9043 151.563 82.3183 151.474 81.8358 151.901C81.6461 152.025 81.4566 152.114 81.2498 152.132C81.2498 152.221 81.2153 152.31 81.198 152.399C81.3876 152.559 81.7323 152.505 81.7323 152.95C81.7323 153.341 81.6289 153.679 81.4738 154.017C81.1981 154.64 81.2152 155.245 81.4048 155.849C81.4221 156.027 81.4049 156.223 81.3704 156.401C80.8878 157.966 82.077 157.059 82.37 157.504C82.6975 157.361 83.0078 158.322 83.3352 157.468C83.2318 156.934 83.2146 156.401 83.4386 155.867L83.4903 155.778C83.2663 155.245 82.9733 154.764 82.7492 154.231C82.6114 153.893 82.5252 153.519 82.5597 153.11C82.6631 152.63 82.8871 152.221 83.1457 151.829C83.7144 150.798 84.4039 151.047 85.0933 151.385C85.1795 151.456 85.2828 151.509 85.3863 151.545C85.1622 152.47 86.0067 152.897 85.9723 153.715C85.3173 154.302 85.4897 154.996 85.6965 155.689C85.731 155.654 85.7654 155.618 85.7999 155.6C86.0757 155.494 86.3342 155.511 86.5928 155.6C86.9892 155.796 87.3511 156.027 87.5407 156.525L87.1271 157.166C86.6962 157.664 86.6272 158.215 86.6445 158.784C86.7134 158.749 86.7996 158.766 86.9202 158.82L87.42 160.527C87.713 161.595 87.1788 162.377 86.7651 163.231C86.6273 163.427 86.4893 163.462 86.3342 163.409C86.1964 163.693 86.0067 163.907 85.6965 163.978L85.4035 164.031C85.3518 164.369 85.3174 164.743 84.9899 164.885C84.8347 164.956 84.6796 164.938 84.5245 164.85C84.5072 164.814 84.49 164.796 84.4728 164.761C84.1625 164.796 83.8351 164.654 83.6283 165.116C83.3697 165.454 83.0594 165.472 82.732 165.365C82.5596 165.259 82.3873 165.134 82.2322 165.01L82.3183 165.259C82.3528 165.383 82.3528 165.472 82.37 165.597C82.8009 166.148 83.2835 166.593 83.9212 166.717C84.3694 167.055 84.2315 167.713 84.4383 168.193L84.4728 168.976C84.3004 169.581 84.4383 170.114 84.6969 170.612C84.9209 170.577 85.0416 171.288 85.3518 170.755L85.7137 171.111V171.911L85.145 173.281C85.1622 173.494 85.1967 173.725 85.2484 173.921C85.2829 174.152 85.3173 174.366 85.3345 174.615V174.952L85.5414 175.237L85.8517 176.429C85.6965 177.265 85.8861 178.208 85.5242 178.972L85.5586 179.186L86.3514 179.079C86.5583 179.079 86.7479 179.132 86.8685 179.346C86.8685 179.47 86.9202 179.595 86.9547 179.719C87.196 180.502 86.7307 180.893 86.3687 181.356C85.3001 182.121 86.5066 182.174 86.6272 182.548C86.5583 182.601 86.4893 182.636 86.4204 182.69C86.61 182.743 86.7996 182.85 86.9892 183.01C86.5755 183.739 85.9378 183.33 85.4035 183.455V183.259V183.063C85.5069 182.939 85.6276 182.85 85.731 182.779C85.6104 182.743 85.5069 182.69 85.3863 182.601L85.3518 182.334C85.0416 182.601 84.7141 182.619 84.3694 182.423C84.3694 182.725 84.3693 183.01 84.0763 183.17C84.0074 183.65 84.3004 183.935 84.4728 184.273L85.2656 184.006L85.4207 183.793C86.3515 184.024 85.9206 185.304 86.4893 185.82C86.4032 186.389 86.6444 186.532 87.0409 186.478C87.2649 186.55 87.4029 186.727 87.4546 187.012C87.4546 187.599 87.1098 187.99 86.8857 188.453C86.7479 188.702 86.5927 188.915 86.4031 189.093C86.1963 189.253 86.0068 189.289 85.8517 189.2L85.8689 189.982L85.2484 190.143V190L84.5934 189.698V189.805C84.4383 189.982 84.2832 190.054 84.1108 190.054C84.2143 190.303 84.3004 190.569 84.3866 190.854C84.4383 190.854 84.5072 190.89 84.5762 190.943C84.7141 190.605 84.9381 190.392 85.2656 190.374C85.8171 190.712 86.2997 191.139 86.4549 191.939C86.5066 191.868 86.541 191.815 86.61 191.761C86.8685 191.565 87.127 191.423 87.42 191.352C87.7475 191.334 87.9889 191.477 88.1095 191.886L88.0061 193.149C88.2991 194.109 88.3853 195.052 87.7131 195.745C87.5752 195.834 87.4201 195.852 87.2477 195.817C87.1098 196.35 86.7651 196.919 87.4546 197.364L87.0581 198.698C87.0581 198.805 87.0753 198.911 87.1098 199L87.8165 199.463C88.0061 200.975 89.4366 201.9 89.2126 203.589L88.7989 204.07C88.954 204.141 89.1091 204.23 89.247 204.354C89.6779 204.781 89.8847 205.297 90.0571 205.831L90.5225 207.627C90.6604 208.107 90.9016 208.552 90.9016 209.068C90.2812 209.69 91.1946 209.957 91.1946 210.437C91.3325 211.22 91.3326 212.003 91.4877 212.767C91.4877 212.945 91.4704 213.105 91.4187 213.283C91.2808 213.657 91.3498 213.959 91.4877 214.262C91.5911 214.066 91.7462 213.941 91.9875 213.906C92.5563 214.013 92.8148 214.457 92.901 215.062C93.2629 215.524 93.1423 216.058 93.2112 216.574C92.901 216.841 92.8837 217.428 92.5045 217.641C92.539 217.961 92.5907 218.317 92.6769 218.619C93.0044 218.424 93.3663 218.655 93.7283 219.082L93.4525 220.416L93.2629 220.718V220.754C93.5387 221.608 93.2112 222.87 94.4695 223.102C94.6935 223.155 94.9347 223.226 95.1243 223.422C95.5208 224.169 94.5384 224.756 95.1588 225.538C95.3657 226.179 95.7793 226.606 96.2102 227.015C96.3308 227.886 96.2102 228.918 97.296 229.149C97.4684 229.736 97.2616 230.377 97.6063 230.946C97.8131 231.782 97.3994 232.351 97.3305 233.08C97.1409 233.276 96.9513 233.489 96.7445 233.489L96.8479 233.685C96.8479 233.685 96.9341 233.827 96.9513 233.898L97.0548 234.112C97.2099 234.432 97.3477 234.752 97.4684 235.09L97.6063 235.197C98.0027 235.072 98.3819 235.001 98.7266 235.606C98.6921 236.602 99.0023 237.562 99.4332 238.452L99.3643 238.505V238.541L100.054 240.373C100.295 240.515 100.467 240.764 100.605 241.049C100.743 241.333 100.847 241.689 101.208 241.671L101.674 241.902C101.76 242.721 101.519 243.681 102.57 244.161L102.742 244.535C103.363 245.638 104.139 246.58 104.621 247.754C104.69 247.843 104.759 247.95 104.794 248.057L103.932 249.106C103.966 249.195 104.018 249.302 104.087 249.373L104.156 249.497C105.207 248.608 105.535 248.697 106.224 250.031C106.276 250.778 106 251.65 107 252.059C107.62 252.201 107.603 252.77 107.724 253.233C107.775 253.66 107.758 254.069 107.62 254.424C107.499 254.673 107.344 254.798 107.155 254.798V254.834C107.603 255.011 107.775 255.349 107.758 255.812C107.844 255.687 107.999 255.652 108.189 255.705C108.344 255.776 108.499 255.865 108.654 255.972C109.12 256.363 109.706 256.452 110.154 256.861C110.326 257.075 110.447 257.306 110.378 257.573L110.326 258.124C110.205 258.693 110.533 259.085 110.929 259.44C111.653 260.401 111.877 261.593 112.481 262.606L112.946 263.282C113.428 263.834 113.808 264.35 113.153 264.599C113.549 265.15 114.049 265.577 114.497 266.057C115.014 266.573 115.548 267.018 115.997 267.605C117.1 269.045 118.703 270.148 118.84 272.211C118.84 272.407 119.185 272.603 119.375 272.781C121.478 275.182 123.494 277.601 125.011 280.429C125.045 280.553 125.114 280.66 125.218 280.731C125.942 282.101 127.303 283.026 127.941 284.467C128.423 285.356 129.234 286.067 129.509 287.046C129.733 287.295 130.061 287.526 129.888 287.899L130.612 288.166C132.06 288.451 132.698 289.358 132.836 290.728C133.577 292.506 135.783 293.236 136.352 295.139C136.266 295.53 137.472 296.402 136.162 296.366C135.542 296.757 134.714 296.366 134.266 295.957C133.025 294.819 131.595 294.214 130.216 293.485C137.576 300.279 145.831 306.416 155.087 311.52C157.362 312.819 159.775 313.922 162.136 315.078C164.584 316.145 166.945 317.248 169.547 318.173C172.167 319.098 174.753 320.058 177.407 320.787C177.889 320.93 178.389 321.054 178.889 321.197C178.769 321.125 178.613 321.09 178.493 321.001C180.216 320.841 182.595 321.73 184.715 322.193C184.801 322.317 184.784 322.424 184.68 322.495C184.284 322.531 183.801 322.442 183.215 322.21C182.75 322.086 182.25 322.015 181.75 321.961C182.957 322.246 184.163 322.513 185.387 322.762C187.352 323.171 189.317 323.509 191.299 323.811C189.558 323.42 187.524 323.029 187.248 322.406L186.542 322.228L186.662 321.588C187.369 321.143 188.11 320.734 190.523 320.77C191.04 320.77 191.575 320.77 192.143 320.77C193.798 320.787 195.332 320.716 196.418 320.467C197.59 320.165 197.314 319.578 199.175 319.382C198.176 318.778 199.02 318.475 200.968 318.244L201.899 318.297C202.002 318.795 202.398 319.258 203.708 319.72C204.122 319.756 204.536 319.791 204.949 319.809C206.966 320.129 207.638 320.663 209.362 320.983C210.982 321.374 212.705 321.712 211.895 322.388C210.585 322.851 209.431 323.349 207.655 323.651C209.293 323.811 209.448 324.238 210.413 324.505L208.62 324.932C211.378 324.878 214.17 324.718 216.945 324.434C217.169 324.256 217.48 324.096 217.997 323.918C217.79 323.936 217.531 323.954 217.48 323.971C211.74 323.58 216.308 322.655 218.203 322.033C217.704 322.104 216.894 322.139 215.894 322.05C215.773 321.961 215.739 321.872 215.79 321.766C215.377 321.143 212.774 321.054 211.206 320.645L210.085 320.076H209.879C208.379 320.005 206.276 320.023 206.811 319.436C209.672 319.169 210.844 317.853 215.342 318.386L215.756 319.311L216.894 319.222C216.894 320.005 219.496 319.614 221.513 319.347C222.185 319.774 220.323 321.357 226.218 319.56C227.493 319.649 229.114 319.24 230.699 318.778C232.061 318.422 233.285 318.173 234.439 318.03C236.025 317.728 234.405 319.044 237.404 318.03C238.817 318.066 239.076 318.635 240.989 318.404C241.609 318.368 242.161 318.351 242.402 318.511C242.781 318.368 243.161 318.244 243.522 318.102L243.212 318.155C243.574 317.781 243.04 317.639 244.488 316.945C245.729 316.359 246.97 315.896 248.193 315.416C250.434 314.562 252.382 313.477 254.071 312.232C254.622 311.876 255.191 311.538 255.794 311.218C260.999 308.39 257.121 309.457 258.155 308.426C257.449 308.514 259.982 306.362 257.139 307.91C255.639 309.048 254.036 310.115 252.175 310.934C252.054 310.969 251.968 311.005 251.847 311.04C250.399 312.125 249.107 313.192 247.676 314.206C246.728 314.882 245.642 315.505 244.264 316.109C242.575 316.785 241.041 317.194 239.507 317.55C235.491 318.511 235.663 317.621 236.146 316.696C236.266 316.536 236.352 316.412 236.404 316.27C239.713 315.22 240.248 314.046 242.919 312.819C245.453 312.374 247.469 311.129 249.486 309.76C249.365 309.795 249.227 309.813 249.107 309.849C248.521 309.849 248.314 309.653 248.383 309.315C248.607 308.71 249.072 308.052 250.365 307.074L252.692 306.149C254.588 305.473 256.311 304.406 257.931 303.161C257.776 303.178 257.725 303.107 257.794 302.912C259.31 301.595 260.827 300.208 262.258 298.803C264.791 296.295 267.48 294.445 269.996 292.471C270.6 292.044 270.824 292.008 270.824 292.239C271.685 291.528 272.375 291.066 272.84 291.012C272.961 291.03 273.081 291.048 273.219 291.03C274.098 290.141 274.96 289.18 275.598 288.949C275.925 288.824 276.029 288.949 275.925 289.287L275.787 289.536C276.132 289.607 276.132 290.141 277.39 288.984C278.407 288.184 278.7 288.273 278.769 288.735C278.717 289.109 278.562 289.536 278.407 289.98L278.907 289.233C279.148 288.896 279.372 288.593 279.614 288.273C280.458 286.512 280.975 284.982 280.648 284.324C280.941 283.15 282.475 281.229 283.233 279.682L284.75 277.245C286.06 275.431 286.922 273.705 287.542 271.998C287.266 272.034 288.387 269.703 287.18 271.286L287.456 269.988L288.818 267.373C289.731 265.933 290.627 264.474 291.472 262.998C291.765 262.251 292.075 261.521 292.299 260.774C292.575 259.992 292.868 259.209 293.161 258.409L293.609 257.217L293.799 256.168C294.212 254.745 294.591 253.322 294.971 251.881C296.108 248.999 296.901 245.567 297.987 242.863L298.159 242.063C297.866 242.169 297.59 242.169 297.297 242.205C297.108 242.134 296.97 241.885 297.056 241.031C297.16 240.551 297.246 240.088 297.315 239.626C297.78 236.655 298.538 235.357 299.228 233.792C300.831 231.337 299.693 230.715 299.848 229.22C299.952 229.025 300.038 228.918 300.141 228.794C300.003 228.527 299.9 228.064 299.814 227.388C300.641 224.756 301.003 226.57 301.589 226.321L301.486 227.033L301.365 227.744C301.175 228.171 301.02 228.456 300.865 228.669C300.951 228.847 301.02 229.096 301.072 229.487L300.917 230.501C301.382 229.63 301.727 229.665 301.917 230.519C302.141 229.416 302.33 228.313 302.692 227.869C303.037 226.108 302.951 224.952 302.968 223.564L302.054 224.293L301.779 225.058C301.038 223.867 302.141 219.117 301.83 216.965C302.158 214.831 302.003 214.155 301.589 214.19C301.399 213.835 301.348 213.07 301.417 211.985C301.675 209.744 302.123 208.356 302.503 206.649C302.709 205.759 302.933 204.995 303.192 204.425C303.433 203.927 303.623 203.892 303.761 204.265V204.212L303.968 201.259L304.623 200.975L304.571 201.491L305.14 203.002V202.576C305.364 201.971 305.536 201.775 305.708 201.846C305.708 200.815 305.674 199.783 305.657 198.716C305.605 198.662 305.553 198.52 305.502 198.324C305.277 199.516 305.019 200.228 304.691 200.121C304.226 198.574 303.881 196.759 303.899 193.718C303.847 193.949 303.778 194.145 303.709 194.322C303.416 194.909 303.123 195.319 302.83 195.479C302.503 195.39 302.296 194.767 302.261 193.149L302.554 188.382C302.399 184.575 302.365 180.982 303.157 178.528C303.313 178.243 303.468 178.279 303.623 178.528C303.726 177.496 303.881 176.536 303.933 175.593C304.002 174.615 303.899 173.636 303.537 172.711L303.726 170.488C303.761 169.759 303.726 169.083 303.726 168.354C303.692 168.016 303.64 167.678 303.571 167.34C303.295 166.735 302.899 166.184 302.554 165.614C301.348 160.705 298.607 157.717 296.039 153.27L295.712 151.972C295.419 151.794 295.057 151.598 294.626 151.331C292.075 149.286 289.231 146.636 286.06 144.821C284.802 143.985 283.371 143.594 282.078 142.794C281.044 141.62 279.407 141.798 278.08 141.389C276.908 141.104 275.787 140.642 274.581 140.481C273.409 140.25 272.22 139.983 270.979 139.983C270.444 139.912 269.945 139.841 269.479 139.734C268.462 139.468 267.445 139.61 266.429 139.699C266.963 139.823 267.204 140.001 267.135 140.232C266.756 140.535 266.17 140.695 265.463 140.891C264.757 141.122 263.895 141.282 262.93 141.406C262.102 141.655 261.327 141.958 260.517 142.1C259.707 142.242 258.914 142.42 258.155 142.723C257.535 142.545 255.691 143.043 255.381 142.776C254.536 143.149 253.657 143.505 252.812 143.95C253.209 144.128 252.468 144.946 251.261 145.978C250.106 146.422 249.072 147.098 247.918 147.65C247.659 147.721 247.435 147.845 247.194 147.934L247.125 148.005C244.97 149.855 242.213 152.132 241.971 154.533C241.92 154.96 241.782 155.405 241.506 156.187C240.282 158.5 238.99 158.642 238.128 161.577C237.783 162.591 237.524 163.516 237.318 164.405C237.214 165.33 237.145 166.184 237.076 167.02C236.663 168.318 236.439 169.723 236.197 171.022C236.128 172.338 236.232 173.583 236.645 174.526C236.749 176.464 236.352 177.87 236.87 180.698C237.128 184.095 236.663 185.678 236.577 188.275C236.37 188.702 236.163 189.271 235.939 188.951L236.025 189.84C236.077 190.143 236.094 190.463 236.111 190.783L236.197 191.726C236.335 193.131 236.456 194.554 236.542 195.959C236.577 196.154 236.628 196.368 236.68 196.599C237.094 196.759 237.507 197.079 237.766 199.872C237.576 203.572 237.645 207.574 237.697 211.736L237.611 211.825V212.02C237.559 214.724 237.473 217.445 237.266 220.167C237.369 221.216 237.335 222.461 237.231 223.795C237.111 225.147 236.87 226.641 237.111 227.353L237.163 229.203C236.352 232.529 235.112 235.499 234.491 239.715L233.819 241.529C233.112 243.432 232.285 245.3 231.251 247.167C230.01 249.195 229.027 250.494 227.614 252.468L226.459 253.642L225.442 254.62C224.753 255.26 223.667 256.132 222.892 256.612C222.547 256.897 222.099 257.217 221.564 257.537C220.651 257.626 219.772 257.662 218.893 257.662L217.583 258.338L217.031 258.604C217.859 258.978 218.048 259.334 217.187 259.992C216.325 260.614 214.377 261.575 210.982 262.446C208 262.873 205.225 262.713 201.295 263.603C199.331 264.172 197.004 263.834 194.987 263.478C193.333 263.069 191.85 262.749 190.971 262.215C190.402 261.877 190.334 261.646 190.764 261.557L190.609 261.521C189.006 261.539 187.438 261.148 185.99 260.454C186.18 260.65 185.921 260.739 185.318 260.721L184.853 260.668C184.525 260.597 184.284 260.579 184.025 260.49C183.905 260.472 183.164 260.223 183.146 260.241L182.664 260.116C180.371 259.494 178.872 259.423 176.373 258.427C175.27 257.928 174.287 257.413 173.65 256.826L172.219 255.634C170.909 254.407 169.082 253.339 167.186 252.219C162.946 249.391 159.706 246.047 156.242 242.632C155.432 241.831 154.621 241.031 153.829 240.213C151.674 238.114 149.933 236.086 150.95 236.228L150.916 236.193C149.106 234.165 147.348 232.226 145.642 230.163C143.78 227.904 141.953 225.592 140.299 223.013C140.023 222.568 139.747 222.141 139.471 221.732L138.472 220.256L135.921 215.88L134.714 213.764L133.715 211.558C132.457 208.623 131.181 205.724 130.63 202.825C130.492 202.149 129.837 200.868 129.423 199.854C124.77 187.403 122.477 173.921 123.753 160.847C123.839 160.367 123.89 159.834 123.89 159.282C124.597 153.075 125.442 146.173 127.837 140.393C128.51 138.489 129.406 136.497 130.25 134.558C131.181 132.673 132.164 130.859 133.215 129.4C133.853 128.191 134.68 126.714 135.232 126.501C135.68 125.612 136.11 124.669 136.61 123.797C138.92 118.959 142.264 115.598 145.797 113.481C148.572 111.364 151.536 108.839 154.656 106.58C157.758 104.338 161.102 102.382 164.17 101.368C164.928 101.315 170.047 98.6644 166.738 101.226C166.187 102.275 163.325 104.072 161.343 105.246C155.776 108.607 151.605 112.538 147.744 116.914C151.502 113.196 155.742 109.799 160.413 106.811C171.013 100.212 183.37 95.6584 196.504 93.6485C197.797 93.4528 199.106 93.275 200.399 93.1149C200.365 93.0971 200.347 93.0971 200.313 93.0615C200.744 92.439 201.537 92.5991 202.192 92.5101C202.226 92.5991 202.243 92.7058 202.226 92.8125C202.123 92.9548 201.968 92.9904 201.778 92.937C201.761 92.937 201.743 92.937 201.726 92.937C202.588 92.8303 203.467 92.7769 204.346 92.688C203.777 92.5991 203.105 92.6524 202.933 92.101C202.847 92.101 202.778 92.101 202.709 92.101L202.64 91.4429C202.778 90.8559 202.916 90.269 203.657 89.8421C203.812 89.7354 203.967 89.6464 204.156 89.5575C204.656 89.2907 205.122 89.0061 205.449 88.6148C205.794 88.1701 205.639 87.6009 206.225 87.2096C205.846 86.7294 206.087 86.3025 206.707 85.929H207.018C207.087 86.3914 207.259 86.8539 207.724 87.2274C207.862 87.2274 208 87.2452 208.138 87.2808C208.827 87.5298 209.069 88.0812 209.637 88.4014C210.189 88.8104 210.74 89.2018 210.499 89.8599C210.103 90.2868 209.741 90.7492 209.206 91.0694C209.724 91.2473 209.792 91.6564 210.103 91.9409L209.568 92.3501C210.413 92.3145 211.258 92.2611 212.102 92.2255C212.171 92.0655 212.257 91.9232 212.43 91.7987C212.361 91.7987 212.292 91.7987 212.274 91.7987C210.499 90.9449 211.895 90.3579 212.498 89.9488C212.343 89.9844 212.085 89.931 211.757 89.7532C211.723 89.6642 211.706 89.5575 211.723 89.4686C211.585 88.8104 210.74 88.5614 210.223 88.1168L209.844 87.5298H209.775C209.275 87.4231 208.586 87.4764 208.741 86.8895C209.672 86.6049 210.034 85.2531 211.568 86.0713L211.706 87.0318H212.085C212.085 87.8322 212.929 87.6721 213.602 87.7254C213.808 88.2768 213.171 89.4686 215.118 88.7037C215.515 89.0417 216.049 88.9705 216.583 88.8994C217.031 88.8638 217.428 88.9883 217.807 89.1662C218.324 89.3618 217.704 90.1089 218.703 90.0555C219.117 90.5358 219.134 91.1583 219.703 91.5852C219.893 91.7631 220.03 91.9587 220.099 92.19C220.22 92.19 220.341 92.19 220.461 92.19L220.375 92.1188C220.513 91.9054 220.375 91.5674 220.892 91.4785C221.323 91.4251 221.719 91.4785 222.116 91.5852C222.84 91.7987 223.512 91.7097 224.167 91.4607C224.374 91.4251 224.581 91.4251 224.787 91.4607C226.597 91.8342 225.46 90.6781 225.908 90.3401C225.718 90.02 226.77 89.6286 225.77 89.344C225.167 89.4863 224.563 89.5575 223.908 89.3974L223.805 89.344C223.219 89.6286 222.719 89.9666 222.168 90.269C221.806 90.4646 221.409 90.6069 220.944 90.6247C220.375 90.6069 219.893 90.4291 219.41 90.2512C218.134 89.8421 218.255 89.1128 218.496 88.348C218.548 88.2413 218.583 88.1345 218.617 88.0278C219.737 88.099 220.048 87.1741 221.013 87.0673C221.823 87.6365 222.598 87.3519 223.391 87.1029C223.357 87.0673 223.305 87.0495 223.271 87.014C223.116 86.7472 223.081 86.4804 223.15 86.1958C223.322 85.7689 223.546 85.3776 224.115 85.1286L224.96 85.4843C225.615 85.8756 226.304 85.929 226.976 85.84C226.925 85.7689 226.942 85.68 226.994 85.5554L229.045 84.9685C230.355 84.6483 231.371 85.1997 232.423 85.6444C232.647 85.7867 232.699 85.9468 232.647 86.0891C233.009 86.2314 233.25 86.427 233.354 86.7472L233.405 87.0495C233.802 87.1207 234.215 87.1741 234.388 87.512C234.474 87.6899 234.457 87.85 234.336 87.9923C234.301 88.01 234.284 88.0278 234.25 88.0456C234.284 88.3658 234.129 88.7037 234.646 88.935C235.025 89.2196 235.043 89.5397 234.905 89.8777C234.784 90.0555 234.646 90.2156 234.491 90.3757L234.784 90.3046C234.922 90.269 235.043 90.3046 235.163 90.269C235.801 89.8421 236.318 89.3796 236.49 88.7215C236.887 88.2768 237.662 88.4547 238.231 88.2768L239.162 88.3124C239.851 88.5614 240.489 88.4725 241.075 88.259C241.041 88.01 241.885 87.9923 241.299 87.6009L241.747 87.2808L242.695 87.4053L244.264 88.1523C244.522 88.1523 244.781 88.1701 245.022 88.1523C245.298 88.1523 245.556 88.1523 245.832 88.1879L246.246 88.2413L246.608 88.099L248.055 87.9923C249.003 88.3124 250.158 88.2768 250.985 88.846H251.244C251.244 88.5792 251.244 88.2946 251.261 88.0278C251.296 87.8144 251.399 87.6365 251.692 87.5654C251.847 87.5654 252.002 87.5654 252.157 87.5654C253.14 87.512 253.519 88.0812 253.967 88.5614C254.622 89.8421 254.95 88.6326 255.432 88.6148C255.484 88.7037 255.518 88.7749 255.536 88.8638C255.639 88.6859 255.811 88.5259 256.053 88.3836C256.811 89.0061 256.156 89.5219 256.173 90.0911L255.949 90.0555L255.725 90.0022C255.605 89.8599 255.536 89.7176 255.484 89.5931C255.415 89.6998 255.312 89.7887 255.191 89.8955L254.863 89.8599C255.088 90.2334 255.036 90.5714 254.726 90.8737C255.07 90.9627 255.398 91.0516 255.501 91.3718C256.035 91.5852 256.415 91.3718 256.863 91.3006L256.759 90.4291L256.553 90.2156C257.052 89.3441 258.448 90.1623 259.19 89.7532C259.827 90.02 260.069 89.8243 260.138 89.4152C260.293 89.2018 260.551 89.1306 260.879 89.184C261.551 89.3974 261.913 89.8777 262.378 90.2334C262.619 90.4468 262.826 90.6781 262.947 90.9449C263.05 91.1939 263.033 91.3896 262.895 91.5319L263.774 91.7809L263.74 92.439L263.585 92.3678L263.016 92.9192L263.137 92.9548C263.292 93.1682 263.309 93.3461 263.257 93.524C263.585 93.524 263.895 93.524 264.222 93.5418C264.257 93.4884 264.309 93.435 264.377 93.3995C264.067 93.1327 263.895 92.8481 263.998 92.5279C264.567 92.1188 265.205 91.7986 266.118 91.9587C266.067 91.8876 266.015 91.8164 265.98 91.7453C265.86 91.4251 265.791 91.1227 265.808 90.8026C265.894 90.4824 266.136 90.2868 266.635 90.3223L268.014 90.8915C269.186 90.9804 270.272 91.2117 270.806 92.2077C270.858 92.3856 270.806 92.5279 270.703 92.6702C271.254 93.0437 271.737 93.6129 272.513 93.1682L273.805 94.1465C273.926 94.1999 274.029 94.2177 274.15 94.2355L274.96 93.7908C276.684 94.3066 278.373 93.4351 280.096 94.4667L280.407 95.0714C280.562 94.9647 280.734 94.858 280.941 94.7869C282.285 94.3956 283.647 95.0181 285.008 95.3205C285.56 95.445 286.146 95.4805 286.68 95.7473C286.991 96.6367 287.749 95.9786 288.249 96.2276C289.128 96.53 289.955 96.9924 290.834 97.277C291.024 97.3837 291.179 97.4905 291.334 97.6328C291.644 97.9707 292.006 98.0952 292.385 98.1486C292.23 97.9529 292.213 97.7395 292.299 97.5083C292.747 97.0814 293.368 97.1347 294.074 97.4193C294.798 97.4015 295.315 97.8462 295.901 98.113C295.987 98.5399 296.625 98.949 296.556 99.3937C296.867 99.5715 297.194 99.7138 297.521 99.8561C297.539 99.4648 297.987 99.3225 298.642 99.3047L299.762 100.425L299.934 100.781H299.969C300.969 101.155 301.934 102.257 303.02 101.421C303.226 101.261 303.433 101.137 303.761 101.119C304.743 101.315 304.64 102.506 305.795 102.542C306.536 102.809 307.225 102.791 307.915 102.738C308.828 103.253 309.69 104.054 310.689 103.378C311.362 103.663 311.81 104.267 312.603 104.392C313.516 104.854 313.723 105.619 314.326 106.206C314.361 106.491 314.412 106.793 314.257 106.953L314.516 107.042C314.602 107.042 314.688 107.095 314.774 107.131L315.033 107.22C315.429 107.362 315.826 107.505 316.205 107.682H316.412C316.601 107.291 316.843 106.953 317.635 107.202C318.48 108.003 319.548 108.518 320.669 108.945V109.034H320.721L322.84 110.048C323.168 110.012 323.513 110.084 323.875 110.226C324.219 110.368 324.599 110.599 324.892 110.35L325.478 110.261C325.598 110.386 326.012 110.671 326.339 110.92C326.684 111.169 327.011 111.4 327.373 111.613C328.08 112.04 328.856 112.36 329.993 112.431L330.786 112.805C331.458 113.979 332.148 115.153 332.82 116.327L333.733 117.963C333.923 118.301 334.095 118.657 334.25 119.013C334.337 119.119 334.406 119.262 334.457 119.386L333.63 120.525C333.682 120.649 333.733 120.756 333.802 120.88L333.871 121.023C334.923 120.098 335.267 120.275 336.06 121.983C336.146 122.89 335.888 123.851 336.939 124.562C337.577 124.865 337.577 125.54 337.698 126.145C337.732 126.661 337.715 127.141 337.56 127.533C337.422 127.799 337.267 127.906 337.06 127.871V127.906C337.508 128.226 337.68 128.653 337.646 129.187C337.749 129.062 337.904 129.062 338.111 129.187C338.284 129.311 338.421 129.454 338.577 129.614C339.042 130.201 339.628 130.485 340.059 131.108C340.231 131.41 340.317 131.73 340.231 132.015L340.128 132.637C339.938 133.278 340.248 133.811 340.61 134.381C341.214 135.75 341.265 137.209 341.731 138.596L342.075 139.557C342.437 140.375 342.73 141.122 342.006 141.14C342.299 141.922 342.696 142.616 343.058 143.345C343.471 144.146 343.868 144.91 344.161 145.782C344.902 147.934 346.126 150.051 345.557 152.381C345.505 152.612 345.764 152.986 345.884 153.306C347.056 157.094 347.918 160.99 347.918 164.921C347.884 165.081 347.901 165.223 347.953 165.383C347.918 167.269 348.659 169.172 348.401 171.057C348.315 172.267 348.625 173.583 348.263 174.703C348.28 175.113 348.418 175.575 348.056 175.788L348.47 176.624C349.435 178.047 349.435 179.435 348.625 180.751C348.056 182.903 349.194 185.465 348.228 187.528C347.884 187.759 348.142 189.538 347.246 188.328C346.539 188.079 346.229 187.048 346.195 186.336C346.126 184.362 345.436 182.708 344.885 181C346.539 196.51 346.074 212.252 343.471 227.62C343.523 227.513 343.558 227.406 343.644 227.299C343.971 228.58 343.385 230.394 343.11 231.995C343.006 232.049 342.903 232.049 342.816 231.96C342.782 231.817 342.782 231.657 342.816 231.497C342.437 233.418 342.024 235.339 341.593 237.242C342.058 235.926 342.42 234.094 343.058 233.916L343.196 233.383L343.816 233.507C344.264 234.076 344.712 234.681 344.643 236.566C344.643 236.975 344.643 237.385 344.609 237.847C344.523 239.128 344.471 240.337 344.609 241.244C344.764 242.223 345.385 242.116 345.316 243.628C346.005 242.952 346.229 243.681 346.126 245.318L345.919 246.047C345.436 246.011 344.919 246.225 344.247 247.114L343.902 248.039C343.127 249.48 342.455 249.818 341.713 251.009C340.921 252.077 340.111 253.179 339.731 252.361C339.68 251.258 339.542 250.262 339.697 248.911C339.128 250.031 338.714 249.996 338.215 250.582L338.284 249.177C337.663 251.134 337.06 253.108 336.353 255.047C336.439 255.26 336.491 255.527 336.439 255.954C336.491 255.812 336.56 255.634 336.577 255.598C338.732 251.881 338.197 255.349 338.008 256.897C338.128 256.523 338.421 255.99 338.801 255.314C338.921 255.26 339.007 255.278 339.076 255.349C339.766 255.314 340.662 253.5 341.472 252.486L342.317 251.845L342.368 251.685C342.851 250.6 343.368 248.999 343.782 249.586C343.282 251.828 344.178 253.233 342.23 256.381L341.265 256.31C341.162 256.594 341.076 256.897 340.938 257.164C340.248 256.843 339.628 258.818 338.99 260.294C338.318 260.525 337.853 258.587 336.767 263.282C336.112 264.047 335.698 265.257 335.198 266.448C334.767 267.462 334.285 268.298 333.751 269.028C333.078 270.077 333.009 268.423 332.079 270.646C331.234 271.358 330.683 271.144 329.717 272.211C329.356 272.532 329.011 272.781 328.752 272.798V272.781C328.614 273.047 328.477 273.296 328.339 273.563L328.494 273.403C328.528 273.812 328.959 273.67 328.494 274.773C328.08 275.698 327.58 276.551 327.046 277.37C326.064 278.846 325.443 280.358 324.857 281.799C324.65 282.243 324.409 282.67 324.133 283.097C321.651 286.726 324.03 284.822 323.771 285.925C324.288 285.658 323.358 288.06 324.823 286.05C325.409 284.733 326.081 283.417 326.994 282.137C327.063 282.065 327.115 281.994 327.167 281.941C327.598 280.607 327.804 279.344 328.149 278.028C328.39 277.174 328.683 276.267 329.183 275.253C329.821 274.043 330.562 273.083 331.2 272.087C332.837 269.419 333.354 270.006 333.785 270.86C333.82 271.02 333.888 271.144 333.957 271.269C332.803 273.723 333.268 274.755 332.268 276.907C330.855 278.401 330.252 280.198 329.631 282.012C329.7 281.941 329.769 281.852 329.838 281.799C330.252 281.567 330.528 281.621 330.683 281.905C330.855 282.439 331.01 283.133 330.528 284.413L329.2 286.05C328.063 287.277 327.201 288.682 326.443 290.158C326.546 290.087 326.632 290.158 326.667 290.336C326.064 291.884 325.288 293.307 324.599 294.819C323.185 297.629 321.462 299.55 319.549 301.364C319.1 301.755 318.894 301.791 318.859 301.595C318.239 302.236 317.704 302.645 317.291 302.698C317.187 302.68 317.067 302.68 316.946 302.68C316.325 303.463 315.722 304.263 315.188 304.424C314.912 304.512 314.809 304.423 314.843 304.103L314.929 303.89C314.602 303.819 314.516 303.339 313.585 304.281C312.809 304.904 312.516 304.779 312.396 304.388C312.396 304.068 312.447 303.712 312.516 303.339L312.189 303.943C312.034 304.228 311.844 304.441 311.672 304.69C311.12 306.095 310.776 307.305 311.103 307.928C310.913 308.888 309.604 310.293 308.931 311.449C308.466 312.036 308.035 312.641 307.535 313.192C306.243 314.349 305.346 315.54 304.605 316.75C304.864 316.821 303.588 318.386 304.847 317.461L304.433 318.457L302.847 320.147C301.813 320.983 300.693 321.748 299.624 322.548C299.193 322.993 298.762 323.456 298.383 323.9C297.952 324.38 297.504 324.861 297.039 325.323L296.332 326.017L295.884 326.728L293.506 329.218C291.558 330.624 289.679 332.634 287.68 333.665L287.197 334.074C287.473 334.217 287.68 334.394 287.904 334.555C288.025 334.732 288.007 334.981 287.559 335.497C287.266 335.746 286.991 335.995 286.732 336.244C285.008 337.845 283.836 338.13 282.595 338.592C280.303 338.948 280.717 340.051 279.838 340.816C279.665 340.851 279.545 340.833 279.407 340.833C279.355 341.1 279.183 341.438 278.873 341.883C276.89 342.683 277.649 341.402 277.132 341.082L277.58 340.762L278.028 340.478C278.373 340.389 278.631 340.353 278.838 340.335C278.873 340.175 278.959 339.962 279.131 339.713L279.769 339.25C279.01 339.375 278.804 339.108 279.114 338.485C278.407 338.948 277.701 339.393 277.235 339.375C276.08 340.051 275.529 340.762 274.771 341.456L275.736 341.812L276.322 341.616C276.149 342.879 272.857 344.497 271.72 345.742C270.255 346.472 269.945 346.934 270.203 347.254C270.1 347.592 269.652 347.984 268.962 348.446C267.445 349.264 266.377 349.531 265.084 349.887C264.412 350.065 263.809 350.171 263.326 350.171C262.878 350.154 262.757 349.994 262.93 349.727H262.895L260.93 350.723L260.431 350.243L260.792 350.1L261.465 349.015L261.189 349.158C260.706 349.211 260.499 349.122 260.465 348.944C259.845 349.371 259.19 349.78 258.517 350.171C258.517 350.243 258.448 350.349 258.345 350.456C259.207 350.225 259.776 350.189 259.862 350.527C259.086 351.488 258.121 352.626 256.07 353.569C256.242 353.551 256.415 353.533 256.553 353.533C257.07 353.604 257.483 353.747 257.725 353.96C257.811 354.28 257.483 354.689 256.415 355.259L253.054 356.521C251.796 357.197 250.555 357.82 249.365 358.247C248.176 358.62 247.056 358.834 246.056 358.763C245.815 358.691 245.763 358.531 245.901 358.318C244.419 358.638 242.936 358.727 241.627 359.901C240.437 360.15 239.231 360.292 238.024 360.452C237.749 360.523 237.456 360.612 237.18 360.719L235.784 361.822C231.647 363.138 228.579 365.13 223.943 365.753L222.788 365.522C222.547 365.735 222.237 365.931 221.823 366.126C219.1 367.336 215.532 367.905 212.223 368.456C210.861 368.67 209.517 368.972 208.103 369.061C206.742 368.456 205.501 369.506 204.191 369.541C201.933 369.666 199.727 369.63 197.469 369.79C196.969 369.79 196.504 369.755 196.073 369.702C195.142 369.559 194.212 369.524 193.281 369.613C193.763 369.755 193.988 369.933 193.919 370.182C193.195 370.733 191.712 370.911 189.868 370.875C188.231 371.124 186.714 370.947 185.163 370.804C184.663 370.395 182.905 370.146 182.784 369.702C181.94 369.595 181.095 369.524 180.234 369.47C180.458 369.862 179.51 370.093 178.01 370.253C176.89 370.004 175.787 369.648 174.684 369.31L174.046 368.972H173.96C171.392 368.67 168.462 367.745 166.514 368.599C166.152 368.759 165.721 368.901 164.98 368.901C162.567 368.688 162.119 367.443 159.396 367.389C157.517 367.087 155.966 366.962 154.432 366.962C152.053 366.269 149.554 365.379 147.676 365.824C145.969 365.344 144.608 364.561 142.763 364.223C140.419 363.529 139.54 362.533 137.886 361.626C137.679 361.288 137.386 360.915 137.679 360.808L137.058 360.612C136.834 360.559 136.628 360.488 136.404 360.417L135.749 360.221L132.87 359.278C132.732 359.261 132.577 359.243 132.405 359.225C132.146 359.581 131.784 359.883 129.906 359.225C127.631 357.838 124.994 356.806 122.322 355.668V355.561L122.184 355.508L117.1 353.017C116.376 352.875 115.583 352.573 114.773 352.181C113.963 351.737 113.084 351.203 112.532 351.292L111.326 350.99C109.482 349.62 107.879 348.144 105.293 347.415L104.294 346.774C101.226 344.907 97.951 343.412 95.0899 341.118C94.7969 340.94 94.5211 340.762 94.2625 340.549L93.7972 338.681C93.5559 338.503 93.3146 338.325 93.0733 338.165L92.7631 337.952C92.6079 339.499 91.8668 339.339 88.3508 336.725C86.9892 335.23 86.0584 333.612 83.6454 332.527C82.3528 332.082 81.4221 330.997 80.4741 329.983C79.7502 329.094 79.147 328.258 78.854 327.564C78.6989 327.102 78.7678 326.906 79.078 326.96L78.9919 326.888C78.0095 326.355 77.2166 325.608 76.5789 324.701C76.5962 324.914 76.3893 324.914 75.9929 324.754C75.6137 324.558 75.2345 324.309 74.8209 324.042C73.4076 323.082 72.339 322.566 70.9774 321.463C70.3741 320.912 69.8743 320.361 69.6158 319.827L68.978 318.706C68.4265 317.568 67.3751 316.59 66.2031 315.611C63.8246 313.068 62.0666 310.364 59.8604 307.785C59.3261 307.198 58.8607 306.558 58.3609 305.935C56.9993 304.37 55.8273 302.929 56.6891 302.912H56.6718C55.4653 301.4 54.1727 300.083 52.9662 298.643C51.6735 297.06 50.3464 295.53 49.0882 293.822C47.4853 291.706 45.8651 289.571 44.4346 287.348C43.004 285.125 41.6425 282.919 40.9185 280.518C40.7807 280.055 40.1257 279.237 39.712 278.597C34.7482 270.824 30.7323 262.5 27.6127 254.069C27.5265 253.749 27.3886 253.411 27.2162 253.073C25.9236 248.946 23.614 244.855 22.7006 240.675C21.9939 237.989 20.753 235.126 20.4427 232.582C20.167 231.657 19.7361 230.626 19.9946 230.163L19.0466 228.313C17.1162 225.165 16.4096 222.052 16.513 219.046C15.8408 214.155 13.4106 208.41 13.4451 203.607C13.6692 203.038 12.635 198.983 14.0828 201.686C14.9101 202.202 15.6857 204.55 16.0648 206.186C17.0817 210.74 18.7019 214.511 20.2531 218.406C19.6843 216.485 19.0983 214.582 18.5812 212.643C13.514 193.807 10.4116 174.205 10.0497 154.675C10.0152 154.764 10.0152 154.853 9.96344 154.924C9.4119 153.768 9.67047 151.954 9.6015 150.389C9.70493 150.318 9.79114 150.3 9.89456 150.371C10.0152 150.656 10.0497 150.994 9.98071 151.438C9.98071 151.474 9.98071 151.509 9.98071 151.545C9.98071 149.499 9.98071 147.454 10.0497 145.408C9.89453 146.707 9.87732 148.308 9.30856 148.592L9.25687 149.126H8.61911C8.06757 148.663 7.53329 148.183 7.20584 146.405C7.11966 146.013 7.05069 145.622 6.98175 145.195C6.82663 143.968 6.63702 142.812 6.32678 141.993C5.96484 141.104 5.37878 141.335 5.12027 139.894C4.58597 140.659 4.20682 140.019 4 138.489L4.05167 137.76C4.53427 137.689 4.99963 137.387 5.44775 136.408L5.34433 136.284ZM11.6353 120.329C11.6353 120.044 11.6353 119.777 11.6353 119.528C11.4974 120.364 11.3768 121.2 11.2044 122.001C10.9631 122.659 10.8597 123.175 10.808 123.619C11.0493 123.442 11.3079 123.157 11.5664 122.695L11.7732 121.787C11.9283 121.343 12.1007 121.005 12.2731 120.702C12.3937 119.938 12.4971 119.173 12.635 118.408C12.3248 119.457 12.0834 120.774 11.6353 120.311V120.329ZM20.5461 88.6326C20.5461 88.6326 20.4772 88.6504 20.4427 88.6682C20.4772 88.8816 20.5117 89.1128 20.5117 89.3796L20.7185 88.4014C20.7185 88.4014 20.5978 88.5614 20.5289 88.6326H20.5461ZM45.7445 45.0902C44.8482 45.8372 44.0726 46.193 43.1075 47.1713C42.0561 48.3274 42.2802 48.6832 42.1595 49.2701L42.2284 49.3413L44.4174 47.4381C44.4691 47.2246 44.6242 46.94 44.9344 46.4954C45.2102 46.2108 45.4515 45.9973 45.7272 45.7483C46.0375 45.3392 46.3305 44.9301 46.6925 44.5566L47.3302 43.8807L47.537 43.525C47.5025 43.4182 47.4853 43.2759 47.5026 43.1158C47.5715 42.938 47.6577 42.7779 47.7611 42.6178C47.1061 43.4538 46.3995 44.2364 45.779 45.0902H45.7445ZM76.8719 15.5995C76.0101 16.0264 75.2173 16.5778 74.39 17.0758C75.3034 16.7023 76.148 16.1153 77.027 15.6173C76.9581 15.6173 76.9063 15.6173 76.8719 15.5817V15.5995ZM101.329 6.49258C101.329 6.49258 101.484 6.3325 101.553 6.24356C99.5194 6.67045 97.5028 7.16849 96.5894 8.21791C96.4687 8.44914 96.1758 8.53808 95.7621 8.53808C96.3481 8.73374 96.1068 9.08947 95.1588 9.58751C95.2105 9.58751 95.2105 9.64086 95.245 9.65865C96.0206 9.46299 96.7962 9.28513 97.5201 9.19619C97.8648 9.19619 98.0889 9.19619 98.2268 9.23177C98.5025 9.00054 98.899 8.75152 99.416 8.55586L100.002 8.36021C99.9503 7.98668 100.398 7.61316 101.95 7.18627C101.364 7.09733 101.243 6.83053 101.312 6.49258H101.329ZM121.185 4.55381C120.409 4.90954 119.616 4.90955 118.806 4.90955C118.944 4.94512 119.03 4.99848 119.116 5.06963C119.961 4.96291 120.65 4.76725 121.288 4.55381H121.185ZM331.682 80.0771C331.682 80.0771 331.544 80.0949 331.441 80.0771L332.492 81.1265C332.492 81.1265 332.63 81.0909 332.699 81.0554L331.682 80.0593V80.0771ZM231.216 59.8H231.251C231.216 59.8 231.182 59.8 231.165 59.8C231.182 59.8 231.199 59.8 231.216 59.8178V59.8ZM225.149 60.1024C225.408 60.0134 225.718 59.9778 226.097 60.049C226.442 60.2446 226.683 60.636 227.183 60.547C227.459 60.4225 227.7 60.2269 227.993 60.1557L228.355 60.0668L227.511 59.8534C227.511 59.7644 227.545 59.6755 227.562 59.5865C227.562 59.4442 227.597 59.3375 227.666 59.2308C227.097 59.1419 226.528 59.0529 225.959 58.964L226.011 59.0174C226.08 59.6043 225.46 59.7466 225.149 60.0846V60.1024ZM221.099 59.1952C221.323 59.3731 221.495 59.4087 221.651 59.4087C221.599 59.1774 221.513 58.9462 221.375 58.7328C221.271 58.6972 221.168 58.6616 221.065 58.626C220.944 58.5371 220.875 58.4126 220.789 58.3059C220.496 58.2703 220.203 58.2347 219.91 58.1992C220.272 58.3415 220.72 58.4304 220.53 58.9462C220.427 58.964 220.341 58.9996 220.254 59.0529C220.547 59.0885 220.84 59.1063 221.099 59.1952ZM209.241 57.7723V57.8612C209.327 57.7545 209.413 57.63 209.499 57.541L209.155 57.6833C209.155 57.6833 209.224 57.7367 209.241 57.7723ZM191.902 59.1774C192.316 59.3375 192.591 59.6755 193.074 59.7466C193.608 59.7466 193.626 59.3375 193.781 59.0529V58.9462L192.781 58.5727C192.729 58.6794 192.609 58.7506 192.436 58.8217C192.298 58.8217 192.178 58.7683 192.057 58.7328C191.885 58.7861 191.712 58.8217 191.54 58.8395L191.213 58.8751L191.092 58.9818C191.092 59.0885 191.057 59.1952 191.023 59.3019C190.971 59.3731 190.92 59.4265 190.851 59.4798L191.902 59.1419V59.1774ZM178.355 65.3851L179.234 65.0827C178.906 65.0293 178.596 65.1716 178.303 65.3139L178.355 65.4029V65.3851ZM170.151 67.2527C170.151 67.2527 170.116 67.395 170.099 67.4661C170.771 67.3772 171.409 67.2527 171.633 66.4523C171.65 66.2566 171.754 66.2389 171.892 66.3278C171.65 66.0254 171.702 65.723 171.995 65.4562C171.978 65.4384 171.978 65.4029 171.96 65.3673C171.702 65.3851 171.426 65.4029 171.168 65.3317C171.047 65.2784 170.961 65.2072 170.909 65.1538C170.84 65.3317 170.72 65.474 170.547 65.5807L170.358 65.6697C170.426 66.0254 170.306 66.3278 169.806 66.4879C170.03 66.6657 170.116 66.9503 170.133 67.2705L170.151 67.2527ZM164.067 66.9859C163.963 67.0215 163.911 67.1104 163.825 67.1638C163.946 67.146 164.084 67.146 164.204 67.1638C164.153 67.1282 164.101 67.0748 164.067 67.0037V66.9859ZM163.446 67.4306C163.446 67.4306 163.55 67.3594 163.584 67.3239C163.532 67.3772 163.446 67.395 163.412 67.4484H163.446V67.4306ZM97.6925 110.012L97.951 109.586C97.951 109.586 97.8648 109.497 97.8476 109.443L97.5374 109.888C97.5374 109.888 97.6235 109.977 97.6752 110.03L97.6925 110.012ZM83.4386 141.691C84.0246 141.691 84.0591 142.385 84.3521 142.758C84.3004 142.456 84.3004 142.118 84.4211 141.709C84.6624 141.353 85.076 141.14 85.0588 140.57C84.9898 140.25 84.8347 139.983 84.8175 139.628V139.219L84.4555 140.126C84.3694 140.108 84.2832 140.072 84.197 140.037C84.0764 140.037 83.9729 139.966 83.8868 139.877C83.7144 140.499 83.5248 141.104 83.3525 141.727L83.4214 141.673L83.4386 141.691ZM82.6114 147.739C82.6114 147.845 82.6458 147.952 82.6803 148.059C82.7492 147.739 82.8182 147.418 82.9216 147.134C83.1112 146.92 83.1974 146.725 83.1974 146.547C82.9733 146.582 82.732 146.654 82.508 146.778C82.4735 146.885 82.4218 147.009 82.37 147.116C82.2666 147.24 82.146 147.276 82.0425 147.365C81.9736 147.685 81.8874 148.005 81.8185 148.308C81.9908 147.934 82.1288 147.472 82.6114 147.721V147.739ZM80.1294 159.834L80.2501 160.225C80.2501 160.225 80.3018 160.154 80.3535 160.136H80.4397C80.3363 160.029 80.2328 159.94 80.1466 159.834H80.1294ZM80.8016 177.389H80.6982L80.3018 178.492C80.388 178.563 80.4741 178.688 80.5258 178.883C80.5258 179.026 80.4569 179.15 80.4397 179.293C80.4742 179.488 80.5086 179.684 80.5258 179.879V180.235L80.6465 180.378C80.7499 180.395 80.8533 180.431 80.9567 180.466C81.0256 180.538 81.0774 180.591 81.1291 180.662L80.8361 179.47C81.0085 179.026 81.3532 178.723 81.4221 178.19C81.4566 177.603 81.0429 177.567 80.7672 177.372L80.8016 177.389ZM86.317 193.771C86.248 194.145 86.3687 194.5 86.5066 194.838C86.541 194.82 86.5583 194.785 86.5928 194.785L86.3342 193.771H86.317ZM87.5752 202.255C87.3856 202.22 87.3684 202.113 87.4546 201.953C87.1443 202.202 86.8685 202.131 86.61 201.811C86.5927 201.829 86.5583 201.829 86.5238 201.846C86.541 202.149 86.541 202.433 86.4721 202.718C86.4204 202.86 86.3515 202.949 86.2825 203.002C86.4377 203.091 86.5755 203.234 86.6789 203.412L86.7479 203.625C87.0926 203.572 87.3856 203.696 87.5234 204.265C87.713 204.016 87.9716 203.945 88.2818 203.927C88.3507 203.927 88.4197 203.963 88.4714 203.981C88.4025 203.234 88.2991 202.504 87.5407 202.238L87.5752 202.255ZM88.0061 210.811C88.0406 210.935 88.1267 210.989 88.1612 211.096C88.144 210.953 88.1612 210.811 88.1612 210.669C88.1267 210.722 88.0578 210.775 88.0061 210.829V210.811ZM88.437 211.522C88.437 211.522 88.368 211.416 88.3335 211.362C88.3852 211.416 88.4025 211.505 88.4542 211.576V211.54L88.437 211.522ZM126.717 289.34C126.717 289.34 126.614 289.394 126.545 289.411L126.924 289.838C126.924 289.838 127.027 289.767 127.096 289.732L126.7 289.358L126.717 289.34ZM207.069 323.705C206.052 323.847 204.863 323.918 203.346 323.865C201.881 323.669 200.709 323.278 198.779 323.295C197.728 323.384 196.9 323.527 195.728 323.527C195.263 323.527 194.78 323.527 194.315 323.509L197.814 323.936C197.831 324.025 197.814 324.114 197.71 324.203C197.779 324.363 197.71 324.487 197.452 324.576C199.761 324.772 202.088 324.878 204.415 324.932L204.191 324.878C203.605 324.292 206.052 324.114 207.069 323.722V323.705ZM226.08 322.424C226.459 322.335 226.787 322.21 227.114 322.068C225.959 322.299 224.805 322.531 223.702 322.655C222.754 322.655 222.03 322.744 221.426 322.869C221.754 323.046 222.219 323.206 222.926 323.278C223.357 323.224 223.788 323.189 224.219 323.135C224.822 323.118 225.287 323.135 225.735 323.171C226.787 322.975 227.855 322.744 228.907 322.513C227.424 322.744 225.684 323.029 226.097 322.406L226.08 322.424ZM267.601 303.57C267.601 303.57 267.514 303.57 267.463 303.57C267.325 303.819 267.187 304.103 266.98 304.388C267.325 304.068 267.635 303.73 267.962 303.392C267.842 303.445 267.704 303.516 267.601 303.57ZM300.9 246.954C300.262 249.071 300.607 249.32 300.641 250.12L300.727 250.173L302.244 246.349C302.244 246.065 302.278 245.602 302.416 244.855C302.589 244.322 302.744 243.877 302.899 243.379C303.054 242.667 303.192 241.956 303.347 241.227L303.64 239.928V239.359C303.588 239.252 303.502 239.11 303.45 238.914C303.45 238.665 303.45 238.398 303.45 238.149L302.692 242.578C302.123 244.144 301.503 245.14 300.9 246.972V246.954ZM304.105 186.745C304.209 185.376 304.14 183.988 304.037 182.583C304.002 182.654 303.985 182.725 303.95 182.761C304.002 184.095 304.054 185.411 304.105 186.727V186.745ZM299.797 157.005C300.038 157.112 300.21 157.45 300.296 157.913C300.331 157.201 300.727 157.415 301.468 158.482C301.468 158.428 301.503 158.411 301.52 158.375C301.089 157.486 300.796 156.525 300.4 155.707C300.245 155.298 300.176 155.031 300.176 154.871C299.831 154.586 299.469 154.195 299.055 153.626C298.918 153.413 298.78 153.199 298.607 153.003C298.297 153.181 297.694 152.826 296.505 151.278C296.729 151.954 296.539 152.185 296.212 152.239C296.108 152.239 295.987 152.15 295.884 152.096C297.366 154.053 298.521 156.134 299.831 156.97L299.797 157.005ZM277.252 138.24C278.269 138.24 279.235 138.507 280.114 138.952C279.976 138.845 279.889 138.738 279.838 138.649C278.821 138.365 277.925 138.276 277.132 138.223L277.252 138.258V138.24ZM136.317 130.752C135.99 131.375 135.662 131.979 135.369 132.62C135.404 132.673 135.421 132.798 135.404 132.94C135.714 132.282 136.059 131.641 136.421 131.001C136.386 130.948 136.369 130.841 136.335 130.752H136.317ZM208.896 91.1761C208.586 91.3184 208.224 91.4251 207.759 91.4429C207.293 91.3184 206.897 90.9982 206.311 91.1939C206.001 91.3718 205.759 91.6208 205.415 91.7809L204.984 91.9587L206.07 91.9232C206.07 92.0121 206.07 92.101 206.07 92.2077C206.104 92.35 206.087 92.4923 206.035 92.5991C206.742 92.5457 207.466 92.5101 208.172 92.4746L208.086 92.4212C207.879 91.852 208.603 91.5852 208.896 91.1939V91.1761ZM214.808 91.5319C214.929 91.4963 215.032 91.4429 215.136 91.3895C214.774 91.3895 214.412 91.3895 214.067 91.3718C213.774 91.2295 213.55 91.2117 213.36 91.2472C213.464 91.4607 213.602 91.6742 213.808 91.8698C213.946 91.8698 214.084 91.9054 214.205 91.9409C214.377 92.0121 214.481 92.1366 214.601 92.2433C214.98 92.2433 215.342 92.2255 215.722 92.2255C215.256 92.1188 214.636 92.1188 214.791 91.5496L214.808 91.5319ZM228.872 92.2077L228.838 92.1188C228.752 92.2255 228.648 92.3323 228.545 92.439L228.976 92.3145C228.976 92.3145 228.889 92.2611 228.855 92.2077H228.872ZM250.503 93.5951C250.038 93.3283 249.762 92.9014 249.193 92.7236C248.538 92.5635 248.435 92.9904 248.159 93.2216V93.3105L249.296 93.9153C249.4 93.8441 249.538 93.773 249.779 93.773C249.951 93.8264 250.072 93.8975 250.227 93.9687C250.451 93.9687 250.675 93.9687 250.882 94.0042L251.278 94.0576L251.468 93.9864C251.503 93.8975 251.554 93.7908 251.64 93.7019C251.727 93.6485 251.813 93.6129 251.899 93.5773H250.52L250.503 93.5951ZM269.186 92.7591L267.98 92.6346C268.359 92.8303 268.79 92.8481 269.221 92.8659C269.221 92.8303 269.186 92.7947 269.186 92.7591ZM277.787 95.1959C277.666 95.356 277.545 95.3205 277.408 95.1604C277.528 95.5517 277.321 95.7829 276.856 95.8719C276.856 95.9074 276.856 95.943 276.856 95.9608C277.184 96.0853 277.494 96.2276 277.77 96.4233C277.89 96.5478 277.959 96.6545 277.976 96.7256C278.149 96.6189 278.356 96.5656 278.597 96.5478L278.855 96.5833C278.959 96.2276 279.252 96.0319 279.924 96.1742C279.752 95.8896 279.803 95.605 279.941 95.3205C279.993 95.2671 280.045 95.2137 280.096 95.1604C279.252 94.8758 278.424 94.609 277.77 95.1782L277.787 95.1959ZM286.766 98.9312C286.766 98.9312 286.818 99.0735 286.835 99.1446C286.973 99.1802 287.077 99.1446 287.197 99.1446C287.042 99.0913 286.904 99.0024 286.749 98.9134L286.766 98.9312ZM287.783 99.1624C287.697 99.198 287.628 99.1624 287.542 99.1624C287.628 99.1624 287.732 99.1802 287.818 99.1624H287.766H287.783ZM344.54 174.757C344.54 174.757 344.419 174.739 344.368 174.703L344.437 175.362C344.437 175.362 344.575 175.362 344.626 175.379L344.54 174.757ZM342.782 230.875C342.782 230.875 342.782 230.75 342.782 230.697C342.748 230.892 342.696 231.088 342.661 231.284C342.696 231.141 342.713 231.017 342.765 230.875H342.782ZM339.145 246.189C339.818 245.94 339.49 247.737 339.593 248.59C339.697 247.826 339.938 246.954 340.248 245.869C340.697 244.855 341.265 244.072 341.489 242.614C341.541 241.814 341.489 241.173 341.593 240.284L341.713 239.217L341.007 241.76C340.921 241.76 340.834 241.707 340.765 241.636C340.593 241.653 340.49 241.529 340.421 241.262C339.973 242.97 339.542 244.677 339.059 246.367L339.18 246.189H339.145ZM334.25 261.842C334.164 262.126 334.113 262.393 334.078 262.642C334.406 261.824 334.716 261.006 335.06 260.241C335.457 259.636 335.681 259.138 335.819 258.693C335.543 258.818 335.216 259.049 334.854 259.458L334.44 260.33C334.199 260.721 333.975 261.006 333.751 261.255C333.44 262.019 333.165 262.802 332.837 263.567C333.354 262.571 333.888 261.237 334.25 261.824V261.842ZM318.049 291.67C318.049 291.67 318.118 291.67 318.152 291.67C318.152 291.439 318.187 291.208 318.239 290.941L317.808 291.866C317.808 291.866 317.963 291.724 318.049 291.67ZM283.819 330.624C284.871 330.037 285.767 329.859 286.87 328.987C288.111 327.973 287.938 327.582 288.18 327.013L288.128 326.924L285.629 328.525C285.543 328.72 285.336 329.005 284.94 329.379C284.612 329.61 284.302 329.77 283.992 329.966C283.595 330.303 283.199 330.641 282.785 330.979L282.027 331.566L281.768 331.887C281.768 332.011 281.768 332.136 281.734 332.313C281.63 332.473 281.51 332.634 281.406 332.776L283.819 330.588V330.624ZM248.504 356.788C249.4 356.379 250.244 355.899 251.123 355.454C250.158 355.757 249.262 356.29 248.348 356.753C248.417 356.753 248.469 356.77 248.504 356.788ZM223.064 365.024C223.064 365.024 222.909 365.201 222.823 365.273C224.908 364.81 226.994 364.33 227.959 363.334C228.097 363.12 228.39 363.031 228.803 363.049C228.217 362.836 228.476 362.48 229.458 362.035C229.407 362.018 229.407 361.982 229.372 361.964C228.562 362.142 227.769 362.284 227.011 362.355C226.649 362.355 226.425 362.338 226.287 362.284C225.994 362.516 225.58 362.729 225.046 362.942L224.443 363.138C224.477 363.512 224.012 363.903 222.426 364.348C223.012 364.437 223.133 364.703 223.047 365.041L223.064 365.024ZM202.536 366.696C203.346 366.358 204.174 366.429 205.018 366.393C204.88 366.358 204.777 366.304 204.708 366.251C203.829 366.393 203.105 366.5 202.45 366.713H202.554L202.536 366.696ZM23.9415 232.333C23.9415 232.333 24.0794 232.386 24.1656 232.458L23.683 230.964C23.683 230.964 23.5279 230.928 23.4589 230.91L23.9415 232.333ZM8.80872 140.001C8.92938 140.766 9.11896 141.371 9.20514 142.225L9.29132 143.256L9.46365 140.713C9.54984 140.713 9.63599 140.713 9.72217 140.784C9.87729 140.73 9.99799 140.802 10.1014 141.015C10.1876 139.308 10.291 137.6 10.4289 135.892L10.3254 136.159C9.73944 136.533 9.63602 134.772 9.34299 133.989C9.39471 134.736 9.41193 135.608 9.32574 136.693C9.10168 137.742 8.72253 138.596 8.77423 140.001H8.80872Z" fill="#813FD6"/>
</g>
<defs>
<filter id="filter0_d_3794_1396" x="0" y="0" width="365" height="379" filterUnits="userSpaceOnUse" color-interpolation-filters="sRGB">
<feFlood flood-opacity="0" result="BackgroundImageFix"/>
<feColorMatrix in="SourceAlpha" type="matrix" values="0 0 0 0 0 0 0 0 0 0 0 0 0 0 0 0 0 0 127 0" result="hardAlpha"/>
<feOffset dy="4"/>
<feGaussianBlur stdDeviation="2"/>
<feComposite in2="hardAlpha" operator="out"/>
<feColorMatrix type="matrix" values="0 0 0 0 0.90595 0 0 0 0 0.680313 0 0 0 0 0.680313 0 0 0 0.25 0"/>
<feBlend mode="normal" in2="BackgroundImageFix" result="effect1_dropShadow_3794_1396"/>
<feBlend mode="normal" in="SourceGraphic" in2="effect1_dropShadow_3794_1396" result="shape"/>
</filter>
</defs>
</svg>
